<svg xmlns="http://www.w3.org/2000/svg" xmlns:xlink="http://www.w3.org/1999/xlink" width="793" zoomAndPan="magnify" viewBox="0 0 595.5 842.249979" height="1122" preserveAspectRatio="xMidYMid meet" version="1.0"><defs><g/><clipPath id="b7ffc3e984"><path d="M 21.308594 123.480469 L 573.46875 123.480469 L 573.46875 675.640625 L 21.308594 675.640625 Z M 21.308594 123.480469 " clip-rule="nonzero"/></clipPath><clipPath id="7b0541f100"><path d="M 297.386719 123.480469 C 144.914062 123.480469 21.308594 247.085938 21.308594 399.558594 C 21.308594 552.035156 144.914062 675.640625 297.386719 675.640625 C 449.863281 675.640625 573.46875 552.035156 573.46875 399.558594 C 573.46875 247.085938 449.863281 123.480469 297.386719 123.480469 Z M 297.386719 123.480469 " clip-rule="nonzero"/></clipPath><clipPath id="f2587a8f40"><path d="M 36.238281 123.480469 L 573.46875 123.480469 L 573.46875 662.289062 L 36.238281 662.289062 Z M 36.238281 123.480469 " clip-rule="nonzero"/></clipPath><clipPath id="60aa8231e7"><path d="M 304.855469 123.480469 C 156.503906 123.480469 36.238281 244.097656 36.238281 392.882812 C 36.238281 541.671875 156.503906 662.289062 304.855469 662.289062 C 453.207031 662.289062 573.46875 541.671875 573.46875 392.882812 C 573.46875 244.097656 453.207031 123.480469 304.855469 123.480469 Z M 304.855469 123.480469 " clip-rule="nonzero"/></clipPath><clipPath id="751bdbbd4d"><path d="M 48.289062 150.460938 L 546.488281 150.460938 L 546.488281 648.65625 L 48.289062 648.65625 Z M 48.289062 150.460938 " clip-rule="nonzero"/></clipPath><clipPath id="0ebd0ab7df"><path d="M 297.386719 150.460938 C 159.816406 150.460938 48.289062 261.988281 48.289062 399.558594 C 48.289062 537.132812 159.816406 648.65625 297.386719 648.65625 C 434.960938 648.65625 546.488281 537.132812 546.488281 399.558594 C 546.488281 261.988281 434.960938 150.460938 297.386719 150.460938 Z M 297.386719 150.460938 " clip-rule="nonzero"/></clipPath><clipPath id="ef790bdfcc"><path d="M 61.496094 163.667969 L 533.28125 163.667969 L 533.28125 635.453125 L 61.496094 635.453125 Z M 61.496094 163.667969 " clip-rule="nonzero"/></clipPath><clipPath id="1ea4216894"><path d="M 297.386719 163.667969 C 167.109375 163.667969 61.496094 269.28125 61.496094 399.558594 C 61.496094 529.839844 167.109375 635.453125 297.386719 635.453125 C 427.667969 635.453125 533.28125 529.839844 533.28125 399.558594 C 533.28125 269.28125 427.667969 163.667969 297.386719 163.667969 Z M 297.386719 163.667969 " clip-rule="nonzero"/></clipPath><clipPath id="f5a74cf241"><path d="M 129.070312 231.242188 L 465.707031 231.242188 L 465.707031 567.878906 L 129.070312 567.878906 Z M 129.070312 231.242188 " clip-rule="nonzero"/></clipPath><clipPath id="89848cb341"><path d="M 297.386719 231.242188 C 204.429688 231.242188 129.070312 306.601562 129.070312 399.558594 C 129.070312 492.519531 204.429688 567.878906 297.386719 567.878906 C 390.347656 567.878906 465.707031 492.519531 465.707031 399.558594 C 465.707031 306.601562 390.347656 231.242188 297.386719 231.242188 Z M 297.386719 231.242188 " clip-rule="nonzero"/></clipPath><clipPath id="c2fe932c08"><path d="M 137.113281 239.285156 L 457.664062 239.285156 L 457.664062 559.832031 L 137.113281 559.832031 Z M 137.113281 239.285156 " clip-rule="nonzero"/></clipPath><clipPath id="7679decd34"><path d="M 297.386719 239.285156 C 208.871094 239.285156 137.113281 311.042969 137.113281 399.558594 C 137.113281 488.078125 208.871094 559.832031 297.386719 559.832031 C 385.90625 559.832031 457.664062 488.078125 457.664062 399.558594 C 457.664062 311.042969 385.90625 239.285156 297.386719 239.285156 Z M 297.386719 239.285156 " clip-rule="nonzero"/></clipPath><clipPath id="0f1f3ab4b7"><path d="M 267 257 L 388 257 L 388 537.992188 L 267 537.992188 Z M 267 257 " clip-rule="nonzero"/></clipPath><clipPath id="28bcd8b9be"><path d="M 88.015625 383.640625 L 115.820312 383.640625 L 115.820312 411.445312 L 88.015625 411.445312 Z M 88.015625 383.640625 " clip-rule="nonzero"/></clipPath><clipPath id="6bd0fe8538"><path d="M 101.917969 383.640625 C 94.238281 383.640625 88.015625 389.863281 88.015625 397.542969 C 88.015625 405.222656 94.238281 411.445312 101.917969 411.445312 C 109.597656 411.445312 115.820312 405.222656 115.820312 397.542969 C 115.820312 389.863281 109.597656 383.640625 101.917969 383.640625 Z M 101.917969 383.640625 " clip-rule="nonzero"/></clipPath><clipPath id="2616046ff6"><path d="M 479.929688 383.640625 L 507.734375 383.640625 L 507.734375 411.445312 L 479.929688 411.445312 Z M 479.929688 383.640625 " clip-rule="nonzero"/></clipPath><clipPath id="a07a7214cb"><path d="M 493.832031 383.640625 C 486.152344 383.640625 479.929688 389.863281 479.929688 397.542969 C 479.929688 405.222656 486.152344 411.445312 493.832031 411.445312 C 501.511719 411.445312 507.734375 405.222656 507.734375 397.542969 C 507.734375 389.863281 501.511719 383.640625 493.832031 383.640625 Z M 493.832031 383.640625 " clip-rule="nonzero"/></clipPath><clipPath id="08dae78386"><path d="M 164.292969 256.992188 L 388 256.992188 L 388 537.992188 L 164.292969 537.992188 Z M 164.292969 256.992188 " clip-rule="nonzero"/></clipPath></defs><g clip-path="url(#b7ffc3e984)"><g clip-path="url(#7b0541f100)"><path fill="#9dc121" d="M 21.308594 123.480469 L 573.46875 123.480469 L 573.46875 675.640625 L 21.308594 675.640625 Z M 21.308594 123.480469 " fill-opacity="1" fill-rule="nonzero"/></g></g><g clip-path="url(#f2587a8f40)"><g clip-path="url(#60aa8231e7)"><path fill="#ffffff" d="M 36.238281 123.480469 L 573.46875 123.480469 L 573.46875 662.289062 L 36.238281 662.289062 Z M 36.238281 123.480469 " fill-opacity="1" fill-rule="nonzero"/></g></g><g clip-path="url(#751bdbbd4d)"><g clip-path="url(#0ebd0ab7df)"><path fill="#9dc121" d="M 48.289062 150.460938 L 546.488281 150.460938 L 546.488281 648.65625 L 48.289062 648.65625 Z M 48.289062 150.460938 " fill-opacity="1" fill-rule="nonzero"/></g></g><g clip-path="url(#ef790bdfcc)"><g clip-path="url(#1ea4216894)"><path fill="#ffffff" d="M 61.496094 163.667969 L 533.28125 163.667969 L 533.28125 635.453125 L 61.496094 635.453125 Z M 61.496094 163.667969 " fill-opacity="1" fill-rule="nonzero"/></g></g><g fill="#000000" fill-opacity="1"><g transform="translate(110.00979, 371.213106)"><g><path d="M 4.496094 -14.972656 L 5.265625 -17.089844 L 5.886719 -20.179688 L 6.070312 -22.878906 L 5.851562 -23.777344 L 5.800781 -24.769531 L 5.65625 -25.601562 L 4.722656 -28.140625 L 3.847656 -29.6875 L 2.820312 -31.039062 L 1.511719 -32.378906 L -1.46875 -34.410156 L -2.316406 -34.363281 L -3.121094 -33.652344 L -3.613281 -31.183594 L -3.984375 -30.351562 L -4.179688 -29.472656 L -4.460938 -28.621094 L -4.214844 -27.480469 L -3.710938 -26.597656 L -3.007812 -25.9375 L -2.15625 -24.632812 L -1.742188 -23.773438 L -1.660156 -23.050781 L -1.257812 -21.308594 L -1.757812 -18.976562 L -2.234375 -17.757812 L -3.226562 -16.355469 L -4.425781 -15.054688 L -5.894531 -14.109375 L -7.671875 -13.574219 L -8.621094 -13.507812 L -9.3125 -13.371094 L -10.152344 -13.371094 L -11.140625 -13.503906 L -13.78125 -14.230469 L -15.429688 -15.011719 L -16.808594 -16.089844 L -17.511719 -16.75 L -18.4375 -18.125 L -18.976562 -19.390625 L -19.300781 -20.738281 L -18.894531 -23.746094 L -18.292969 -25.582031 L -17.535156 -26.816406 L -17.015625 -27.515625 L -16.371094 -27.988281 L -14.769531 -28.898438 L -13.992188 -29.195312 L -12.941406 -29.792969 L -12.191406 -30.65625 L -12.0625 -31.460938 L -11.769531 -32.355469 L -11.574219 -33.234375 L -11.109375 -34.410156 L -10.882812 -35.746094 L -11.023438 -36.578125 L -11.808594 -37.121094 L -12.832031 -37.121094 L -13.695312 -37.035156 L -14.675781 -37.023438 L -15.5 -36.738281 L -16.300781 -36.539062 L -17.203125 -36.136719 L -18.15625 -35.886719 L -19.746094 -35.019531 L -22.417969 -32.589844 L -24.949219 -28.8125 L -25.21875 -28.003906 L -25.589844 -27.171875 L -26.371094 -24.5 L -26.707031 -20.074219 L -26.074219 -16.453125 L -25.464844 -14.933594 L -24.289062 -12.609375 L -23.140625 -11.035156 L -22.109375 -9.863281 L -19.984375 -8.113281 L -18.328125 -7.191406 L -14.726562 -5.734375 L -11.492188 -5.121094 L -8.859375 -5.050781 L -4.578125 -5.871094 L -2.183594 -7.125 L 0.0429688 -8.605469 L 1.550781 -10.195312 L 2.910156 -11.914062 L 3.296875 -12.648438 L 3.839844 -13.429688 L 4.226562 -14.160156 Z M 4.496094 -14.972656 "/></g></g></g><g fill="#000000" fill-opacity="1"><g transform="translate(121.051071, 334.245847)"><g><path d="M 0.0117188 -3.777344 L 1.199219 -3.558594 L 1.972656 -4.132812 L 2.441406 -4.90625 L 3.132812 -6.667969 L 3.964844 -8.207031 L 4.621094 -9.789062 L 5.109375 -10.5 L 5.453125 -11.429688 L 9.324219 -19.4375 L 9.285156 -20.398438 L 8.242188 -21.445312 L 4.941406 -22.972656 L 3.550781 -23.1875 L 2.714844 -22.6875 L 2.390625 -21.800781 L 2.183594 -20.953125 L 1.65625 -20.160156 L 0.90625 -18.476562 L 0.355469 -17.746094 L 0.128906 -16.957031 L -0.707031 -15.414062 L -1.03125 -14.523438 L -1.742188 -13.867188 L -2.707031 -13.929688 L -16.429688 -20.527344 L -17.441406 -20.910156 L -19.023438 -21.765625 L -21.390625 -22.746094 L -22.140625 -23.15625 L -23.226562 -23.175781 L -24.101562 -22.597656 L -24.855469 -21.015625 L -25.078125 -20.128906 L -26.015625 -18.582031 L -26.261719 -17.753906 L -26.34375 -16.75 L -25.625 -15.960938 L -19.949219 -13.25 L -19.21875 -12.804688 L -18.371094 -12.496094 L -16.929688 -11.660156 L -16.015625 -11.273438 L -15.207031 -10.988281 Z M 0.0117188 -3.777344 "/></g></g></g><g fill="#000000" fill-opacity="1"><g transform="translate(133.463367, 308.434631)"><g><path d="M 9.371094 -12.296875 L 10.039062 -13.472656 L 10.566406 -14.144531 L 11.847656 -17.527344 L 12.082031 -19.339844 L 12.128906 -21.121094 L 11.824219 -22.875 L 11.132812 -24.621094 L 10.554688 -25.359375 L 10.1875 -26.167969 L 8.878906 -27.582031 L 7.246094 -29.007812 L -2.667969 -35.992188 L -3.417969 -36.410156 L -4.171875 -37.050781 L -4.8125 -37.390625 L -7.859375 -39.539062 L -8.515625 -40.164062 L -9.625 -40.230469 L -10.449219 -39.601562 L -12.003906 -37.238281 L -13.203125 -35.773438 L -13.378906 -34.746094 L -12.855469 -33.769531 L 1.664062 -23.65625 L 3.761719 -21.796875 L 4.15625 -21.1875 L 4.605469 -20.265625 L 4.605469 -19.332031 L 4.179688 -17.710938 L 2.628906 -15.507812 L 1.847656 -14.792969 L 1.042969 -14.425781 L 0.1875 -14.148438 L -0.710938 -14.121094 L -1.5625 -14.394531 L -3.847656 -15.671875 L -15.59375 -24.109375 L -16.195312 -24.425781 L -17.320312 -25.324219 L -18.4375 -26.003906 L -19.554688 -26.128906 L -20.425781 -25.59375 L -20.917969 -24.894531 L -21.324219 -24.082031 L -22.585938 -22.605469 L -23.019531 -21.757812 L -23.265625 -20.78125 L -22.90625 -19.8125 L -22.121094 -19.367188 L -21.238281 -18.746094 L -20.703125 -18.261719 L -15.484375 -14.75 L -14.828125 -14.121094 L -14.078125 -13.703125 L -8.242188 -9.429688 L -5.152344 -7.582031 L -3.386719 -6.890625 L -1.726562 -6.597656 L 0.191406 -6.511719 L 1.015625 -6.589844 L 1.882812 -6.804688 L 3.480469 -7.4375 L 4.328125 -7.9375 L 5.046875 -8.257812 L 6.652344 -9.210938 L 7.953125 -10.4375 L 8.472656 -11.171875 Z M 9.371094 -12.296875 "/></g></g></g><g fill="#000000" fill-opacity="1"><g transform="translate(154.132079, 279.866629)"><g><path d="M 1.429688 -3.351562 L 2.347656 -2.992188 L 3.335938 -3.207031 L 4.296875 -4.339844 L 5.355469 -5.1875 L 9.941406 -9.808594 L 10.679688 -10.34375 L 13.824219 -13.742188 L 14.308594 -14.402344 L 15.601562 -16.675781 L 15.894531 -17.53125 L 16.171875 -19.816406 L 15.875 -21.851562 L 15.566406 -22.804688 L 15.160156 -23.605469 L 14.820312 -24.464844 L 12.339844 -27.125 L 10.851562 -27.933594 L 8.988281 -28.683594 L 8.097656 -28.753906 L 7.144531 -28.703125 L 6.101562 -29.125 L 5.730469 -29.953125 L 5.113281 -31.800781 L 4.363281 -33.335938 L 3.328125 -34.457031 L 2.289062 -35.386719 L 0.902344 -36.289062 L 0.015625 -36.742188 L -2.488281 -37.179688 L -3.410156 -37.160156 L -4.203125 -37.007812 L -5 -36.921875 L -5.859375 -36.707031 L -6.75 -36.398438 L -7.484375 -36.054688 L -9.019531 -35.117188 L -12.417969 -31.976562 L -12.867188 -31.28125 L -14.277344 -30.21875 L -14.726562 -29.523438 L -18.671875 -25.78125 L -19.0625 -24.769531 L -18.722656 -23.78125 L -18.03125 -23.078125 L -17.402344 -22.5625 L -16.773438 -21.859375 L -16.175781 -21.3125 L -14.382812 -19.355469 L -12.96875 -18.105469 L -7.089844 -11.851562 L -6.050781 -10.984375 L 0.769531 -3.898438 Z M -4.445312 -22.496094 L -5.496094 -22.222656 L -6.726562 -22.773438 L -7.828125 -23.832031 L -8.355469 -25.140625 L -8.125 -26.121094 L -4.601562 -29.136719 L -3.835938 -29.382812 L -3.078125 -29.121094 L -2.039062 -28.253906 L -1.351562 -27.101562 L -1.453125 -26.246094 L -2.070312 -25.015625 Z M 3.851562 -13.839844 L 3.054688 -13.5 L 2.011719 -13.730469 L 0.21875 -15.75 L -0.0273438 -16.578125 L 0.109375 -17.53125 L 0.816406 -18.03125 L 1.425781 -18.753906 L 4.722656 -21.421875 L 5.488281 -21.730469 L 6.375 -21.46875 L 7.351562 -20.855469 L 8.105469 -19.769531 L 8.191406 -18.972656 L 7.992188 -18.085938 L 6.386719 -16.195312 Z M 3.851562 -13.839844 "/></g></g></g><g fill="#000000" fill-opacity="1"><g transform="translate(179.410567, 256.382341)"><g/></g></g><g fill="#000000" fill-opacity="1"><g transform="translate(192.833056, 245.911166)"><g><path d="M 12.226562 -6.472656 L 13.410156 -7.113281 L 14.546875 -7.933594 L 15.339844 -8.363281 L 16.289062 -9.339844 L 17.761719 -10.492188 L 19.1875 -12.289062 L 20.871094 -15.5 L 21.457031 -19.035156 L 21.421875 -20.039062 L 21.554688 -20.925781 L 21.351562 -22.808594 L 21.144531 -23.667969 L 20.851562 -24.582031 L 20.726562 -25.382812 L 20.414062 -26.234375 L 19.964844 -27.0625 L 19.398438 -28.390625 L 18.738281 -29.515625 L 16.496094 -32.335938 L 15.171875 -33.558594 L 14.449219 -34.136719 L 11.972656 -35.5 L 8.617188 -36.695312 L 5.875 -36.949219 L 4.890625 -36.976562 L 4.015625 -36.707031 L 3.171875 -36.660156 L 2.234375 -36.40625 L -0.289062 -35.5 L -9.332031 -30.699219 L -9.980469 -30.195312 L -10.789062 -29.808594 L -11.464844 -28.980469 L -11.371094 -27.960938 L 0.550781 -5.867188 L 1.035156 -5.160156 L 2.125 -3.144531 L 3.183594 -2.132812 L 4.1875 -2.167969 L 4.9375 -2.675781 L 9.796875 -5.207031 L 10.519531 -5.753906 Z M 8.597656 -12.882812 L 7.804688 -12.554688 L 6.660156 -12.5 L 5.9375 -13.078125 L 5.535156 -13.726562 L 4.699219 -15.367188 L 3.492188 -17.214844 L 2.578125 -19.277344 L -0.453125 -24.683594 L -0.738281 -25.394531 L -0.835938 -26.519531 L 0.277344 -27.480469 L 1.914062 -28.417969 L 3.125 -28.921875 L 4.902344 -29.320312 L 5.804688 -29.351562 L 6.632812 -29.238281 L 7.523438 -29.003906 L 8.5 -28.613281 L 9.257812 -28.15625 L 10 -27.640625 L 12.515625 -24.507812 L 13.617188 -21.53125 L 13.738281 -19.703125 L 13.175781 -17.253906 L 12.304688 -15.660156 L 11.351562 -14.683594 L 9.761719 -13.566406 Z M 8.597656 -12.882812 "/></g></g></g><g fill="#000000" fill-opacity="1"><g transform="translate(225.663593, 228.901974)"><g><path d="M 14.875 -4.792969 L 20.941406 -6.902344 L 21.710938 -7.582031 L 21.882812 -8.632812 L 20.453125 -12.9375 L 19.703125 -13.632812 L 18.679688 -13.722656 L 17.726562 -13.3125 L 16.875 -13.171875 L 14.6875 -12.492188 L 13.339844 -11.855469 L 12.457031 -11.65625 L 11.535156 -11.304688 L 10.679688 -11.160156 L 9.773438 -10.765625 L 8.734375 -10.894531 L 8.140625 -11.550781 L 7.25 -14.234375 L 7.335938 -15.257812 L 7.945312 -15.980469 L 9.210938 -16.445312 L 10.617188 -16.773438 L 12.210938 -17.394531 L 13.972656 -17.933594 L 14.796875 -18.300781 L 15.789062 -18.582031 L 16.53125 -19.207031 L 16.546875 -20.15625 L 15.398438 -24.035156 L 14.578125 -25.089844 L 13.414062 -25.316406 L 10.898438 -24.484375 L 10.03125 -24.101562 L 8.199219 -23.632812 L 5.753906 -22.730469 L 4.734375 -22.816406 L 3.953125 -24.023438 L 3.515625 -25.34375 L 3.628906 -26.28125 L 4.453125 -26.933594 L 5.277344 -27.160156 L 6.03125 -27.601562 L 12.15625 -29.539062 L 12.953125 -29.847656 L 13.675781 -30.65625 L 13.847656 -31.566406 L 13.523438 -32.402344 L 13.28125 -33.269531 L 12.347656 -35.800781 L 11.695312 -36.484375 L 10.730469 -36.539062 L 9.835938 -36.242188 L 9.011719 -36.160156 L 5.574219 -34.972656 L 4.664062 -34.574219 L 3.78125 -34.378906 L 3.074219 -34.09375 L 2.191406 -33.898438 L -1.273438 -32.652344 L -2.171875 -32.496094 L -2.921875 -32.058594 L -3.71875 -31.886719 L -4.542969 -31.519531 L -5.410156 -31.28125 L -6.191406 -30.640625 L -6.363281 -29.589844 L -5.742188 -28 L -5.289062 -26.210938 L -4.851562 -25.316406 L -3.550781 -21.109375 L -3.125 -20.257812 L -2.941406 -19.417969 L -1.824219 -15.910156 L -1.441406 -15.183594 L 0.808594 -8.265625 L 0.992188 -7.425781 L 1.402344 -6.617188 L 2.25 -3.632812 L 2.644531 -2.722656 L 3.367188 -1.683594 L 4.832031 -1.554688 L 7.914062 -2.53125 L 8.824219 -2.925781 L 9.605469 -3.140625 L 11.308594 -3.847656 L 12.175781 -3.945312 L 13.171875 -4.226562 L 13.996094 -4.597656 Z M 14.875 -4.792969 "/></g></g></g><g fill="#000000" fill-opacity="1"><g transform="translate(255.06553, 219.930696)"><g/></g></g><g fill="#000000" fill-opacity="1"><g transform="translate(271.691548, 216.268779)"><g><path d="M 26.46875 -1.265625 L 28.164062 -1.488281 L 29.019531 -1.441406 L 30.410156 -1.558594 L 31.652344 -1.847656 L 31.734375 -2.929688 L 31.367188 -3.945312 L 30.609375 -5.570312 L 29.277344 -7.839844 L 28.566406 -9.46875 L 27.585938 -11.039062 L 25.671875 -15.03125 L 25.1875 -15.679688 L 24.695312 -16.511719 L 24.375 -17.484375 L 23.9375 -18.136719 L 23.632812 -18.839844 L 22.605469 -20.449219 L 22.242188 -21.375 L 18.964844 -27.457031 L 18.648438 -28.34375 L 18.113281 -29.125 L 17.804688 -29.917969 L 16.871094 -31.445312 L 16.066406 -32.210938 L 14.5625 -32.585938 L 13.152344 -32.019531 L 12.386719 -31.214844 L 12.019531 -30.429688 L 11.753906 -29.519531 L 11.382812 -28.867188 L 9.800781 -24.652344 L 9.339844 -23.953125 L 9.160156 -23.042969 L 8.710938 -22.167969 L 8.484375 -21.34375 L 4.402344 -11.511719 L 4.183594 -10.511719 L 3.769531 -9.816406 L 3.5 -8.902344 L 2.765625 -7.425781 L 2.1875 -5.597656 L 1.726562 -4.945312 L 1.542969 -4.125 L 0.738281 -2.285156 L 0.515625 -1.375 L 0.796875 -0.265625 L 1.707031 -0.0429688 L 3.453125 -0.222656 L 4.351562 -0.179688 L 6.859375 -0.398438 L 7.875 -0.761719 L 8.6875 -1.613281 L 9.417969 -3.136719 L 10.226562 -4.03125 L 11.144531 -4.574219 L 12 -4.484375 L 13.875 -4.757812 L 14.691406 -4.664062 L 19.082031 -4.933594 L 19.894531 -4.886719 L 20.875 -5.070312 L 21.886719 -4.628906 L 22.777344 -3.957031 L 23.222656 -3.125 L 23.535156 -2.332031 L 24.464844 -1.703125 L 25.519531 -1.308594 Z M 15.714844 -11.914062 L 14.808594 -12.046875 L 13.78125 -11.902344 L 13.046875 -12.179688 L 12.957031 -13.03125 L 14.816406 -17.984375 L 15.289062 -18.410156 L 15.9375 -18.085938 L 18.296875 -13.257812 L 18.160156 -12.441406 L 17.503906 -12.050781 Z M 15.714844 -11.914062 "/></g></g></g><g fill="#000000" fill-opacity="1"><g transform="translate(308.623346, 215.085082)"><g><path d="M 11.621094 1.53125 L 14.617188 1.8125 L 15.964844 1.527344 L 16.566406 0.335938 L 16.988281 -1.964844 L 17.0625 -3.675781 L 17.269531 -4.601562 L 17.445312 -6.390625 L 17.636719 -7.179688 L 17.621094 -8.175781 L 18.601562 -15.339844 L 18.585938 -16.292969 L 19.199219 -20.15625 L 19.722656 -21.449219 L 20.632812 -21.878906 L 22.382812 -21.75 L 24.003906 -21.324219 L 24.957031 -21.339844 L 25.753906 -21.199219 L 26.574219 -21.59375 L 27.230469 -22.507812 L 27.800781 -26.734375 L 27.417969 -27.6875 L 26.644531 -28.371094 L 23.882812 -28.714844 L 23.046875 -28.910156 L 22.09375 -28.890625 L 21.257812 -29.085938 L 17.625 -29.355469 L 16.757812 -29.644531 L 15.914062 -29.792969 L 14.960938 -29.777344 L 13.992188 -29.988281 L 13.167969 -29.910156 L 10.554688 -30.367188 L 9.15625 -30.40625 L 6.058594 -30.972656 L 5.15625 -30.632812 L 4.496094 -29.671875 L 4.429688 -28.777344 L 4.0625 -26.558594 L 3.980469 -25.164062 L 4.285156 -24.3125 L 5.03125 -23.769531 L 5.933594 -23.746094 L 10.15625 -23.132812 L 10.945312 -22.582031 L 11.328125 -21.628906 L 11.0625 -20.214844 L 10.996094 -18.957031 L 10.828125 -17.980469 L 10.761719 -17.082031 L 10.519531 -15.847656 L 9.828125 -9.1875 L 9.628906 -8.308594 L 9.136719 -4.703125 L 9.109375 -3.757812 L 8.746094 -1.179688 L 8.550781 -0.34375 L 9.007812 0.710938 L 10.246094 1.316406 Z M 11.621094 1.53125 "/></g></g></g><g fill="#000000" fill-opacity="1"><g transform="translate(338.09561, 219.137657)"><g><path d="M 3.726562 -0.621094 L 3.707031 0.589844 L 4.40625 1.253906 L 5.246094 1.585938 L 7.097656 1.972656 L 8.757812 2.539062 L 10.421875 2.921875 L 11.207031 3.285156 L 12.179688 3.46875 L 20.71875 5.945312 L 21.664062 5.75 L 22.519531 4.542969 L 23.472656 1.035156 L 23.453125 -0.371094 L 22.824219 -1.113281 L 21.890625 -1.285156 L 21.023438 -1.34375 L 20.152344 -1.734375 L 18.367188 -2.195312 L 17.554688 -2.613281 L 16.738281 -2.703125 L 15.078125 -3.269531 L 14.148438 -3.441406 L 13.382812 -4.035156 L 13.285156 -4.996094 L 17.496094 -19.625 L 17.703125 -20.6875 L 18.28125 -22.390625 L 18.855469 -24.890625 L 19.132812 -25.699219 L 18.96875 -26.773438 L 18.253906 -27.535156 L 16.570312 -28.015625 L 15.65625 -28.089844 L 13.976562 -28.753906 L 13.121094 -28.859375 L 12.113281 -28.769531 L 11.453125 -27.929688 L 9.734375 -21.882812 L 9.414062 -21.085938 L 9.253906 -20.199219 L 8.667969 -18.636719 L 8.441406 -17.675781 L 8.292969 -16.832031 Z M 3.726562 -0.621094 "/></g></g></g><g fill="#000000" fill-opacity="1"><g transform="translate(365.703855, 227.310438)"><g><path d="M 14.128906 6.679688 L 20 9.292969 L 21.023438 9.320312 L 21.867188 8.671875 L 23.769531 4.554688 L 23.699219 3.53125 L 23.011719 2.769531 L 22.039062 2.417969 L 21.320312 1.9375 L 19.257812 0.933594 L 17.839844 0.476562 L 17.058594 0.0195312 L 16.144531 -0.355469 L 15.425781 -0.835938 L 14.492188 -1.167969 L 13.824219 -1.972656 L 13.835938 -2.855469 L 15.023438 -5.425781 L 15.785156 -6.113281 L 16.726562 -6.222656 L 17.96875 -5.695312 L 19.21875 -4.972656 L 20.804688 -4.335938 L 22.457031 -3.523438 L 23.308594 -3.230469 L 24.230469 -2.753906 L 25.195312 -2.703125 L 25.855469 -3.386719 L 27.675781 -7 L 27.796875 -8.328125 L 27.101562 -9.292969 L 24.695312 -10.40625 L 23.804688 -10.71875 L 22.148438 -11.632812 L 19.746094 -12.644531 L 19.058594 -13.40625 L 19.316406 -14.820312 L 19.902344 -16.085938 L 20.625 -16.691406 L 21.671875 -16.601562 L 22.429688 -16.203125 L 23.277344 -16.007812 L 29.070312 -13.230469 L 29.863281 -12.914062 L 30.945312 -13.007812 L 31.691406 -13.554688 L 32.03125 -14.386719 L 32.445312 -15.183594 L 33.496094 -17.667969 L 33.488281 -18.613281 L 32.820312 -19.316406 L 31.964844 -19.710938 L 31.308594 -20.214844 L 27.988281 -21.699219 L 27.050781 -22.03125 L 26.273438 -22.488281 L 25.5625 -22.769531 L 24.785156 -23.226562 L 21.402344 -24.691406 L 20.644531 -25.191406 L 19.796875 -25.386719 L 19.097656 -25.804688 L 18.246094 -26.101562 L 17.449219 -26.519531 L 16.441406 -26.585938 L 15.597656 -25.9375 L 14.964844 -24.351562 L 14.070312 -22.738281 L 13.777344 -21.785156 L 11.851562 -17.828125 L 11.578125 -16.914062 L 11.136719 -16.175781 L 9.550781 -12.851562 L 9.335938 -12.0625 L 6.242188 -5.476562 L 5.800781 -4.738281 L 5.546875 -3.867188 L 4.125 -1.113281 L 3.792969 -0.175781 L 3.609375 1.074219 L 4.589844 2.167969 L 7.503906 3.566406 L 8.4375 3.898438 L 9.152344 4.28125 L 10.882812 4.929688 L 11.582031 5.449219 L 12.5 5.925781 L 13.351562 6.21875 Z M 14.128906 6.679688 "/></g></g></g><g fill="#000000" fill-opacity="1"><g transform="translate(393.068427, 240.383911)"><g><path d="M 9.683594 6.601562 L 12.234375 8.203125 L 13.566406 8.554688 L 14.640625 7.761719 L 16.050781 5.898438 L 16.890625 4.40625 L 17.492188 3.671875 L 18.453125 2.15625 L 18.980469 1.535156 L 19.417969 0.636719 L 23.519531 -5.316406 L 23.933594 -6.175781 L 26.21875 -9.347656 L 27.269531 -10.265625 L 28.277344 -10.238281 L 29.78125 -9.335938 L 31.039062 -8.222656 L 31.894531 -7.8125 L 32.542969 -7.324219 L 33.453125 -7.308594 L 34.449219 -7.828125 L 36.863281 -11.347656 L 36.953125 -12.367188 L 36.570312 -13.328125 L 34.257812 -14.878906 L 33.597656 -15.429688 L 32.738281 -15.84375 L 32.082031 -16.390625 L 28.960938 -18.269531 L 28.3125 -18.917969 L 27.628906 -19.429688 L 26.773438 -19.84375 L 26 -20.46875 L 25.230469 -20.769531 L 23.105469 -22.359375 L 21.871094 -23.023438 L 19.363281 -24.921875 L 18.402344 -25.023438 L 17.378906 -24.464844 L 16.917969 -23.695312 L 15.589844 -21.878906 L 14.890625 -20.675781 L 14.777344 -19.777344 L 15.199219 -18.953125 L 15.992188 -18.527344 L 19.488281 -16.078125 L 19.945312 -15.230469 L 19.855469 -14.207031 L 18.980469 -13.066406 L 18.355469 -11.96875 L 17.765625 -11.175781 L 17.304688 -10.402344 L 16.53125 -9.410156 L 12.914062 -3.777344 L 12.339844 -3.082031 L 10.277344 -0.0859375 L 9.824219 0.75 L 8.335938 2.886719 L 7.789062 3.546875 L 7.722656 4.691406 L 8.554688 5.789062 Z M 9.683594 6.601562 "/></g></g></g><g fill="#000000" fill-opacity="1"><g transform="translate(417.583299, 257.444027)"><g><path d="M 11.035156 10.226562 L 12.429688 11.367188 L 13.328125 11.574219 L 14.234375 11.242188 L 17.21875 7.945312 L 17.390625 6.953125 L 16.988281 5.921875 L 16.289062 5.289062 L 15.730469 4.300781 L 16.023438 3.171875 L 16.699219 2.632812 L 19.976562 -1.0625 L 20.707031 -1.734375 L 22.746094 -4.253906 L 25.921875 -7.496094 L 26.847656 -8.050781 L 27.851562 -7.6875 L 28.605469 -7.183594 L 29.546875 -6.820312 L 30.363281 -7.050781 L 33.378906 -10.316406 L 33.550781 -11.3125 L 33.285156 -12.21875 L 29.253906 -15.867188 L 28.714844 -16.476562 L 27.929688 -16.945312 L 25.199219 -19.414062 L 24.65625 -20.085938 L 23.890625 -20.78125 L 22.921875 -21.050781 L 21.867188 -20.550781 L 19.734375 -17.996094 L 19.097656 -17.425781 L 18.859375 -16.425781 L 19.261719 -15.398438 L 19.929688 -14.796875 L 20.199219 -13.824219 L 19.683594 -12.652344 L 10.535156 -2.339844 L 9.265625 -1.671875 L 6.464844 -2.992188 L 5.554688 -2.726562 L 2.683594 0.246094 L 2.203125 1.449219 L 2.597656 2.351562 L 3.230469 2.921875 L 3.921875 3.429688 L 4.769531 4.4375 L 5.832031 5.335938 L 6.558594 5.871094 L 7.769531 7.210938 L 8.886719 7.980469 L 10.519531 9.457031 Z M 11.035156 10.226562 "/></g></g></g><g fill="#000000" fill-opacity="1"><g transform="translate(436.143173, 274.293171)"><g><path d="M 7.300781 9.632812 L 9.46875 12.445312 L 10.101562 13.085938 L 10.84375 13.640625 L 11.515625 14.253906 L 12.359375 14.726562 L 12.9375 15.296875 L 13.789062 15.703125 L 17.144531 16.914062 L 19.011719 17.074219 L 19.78125 17.027344 L 20.859375 16.789062 L 21.660156 16.488281 L 22.421875 16.214844 L 24.335938 15.011719 L 25.394531 14.035156 L 26.992188 11.871094 L 27.238281 11.035156 L 27.546875 9.277344 L 27.597656 8.199219 L 27.421875 7.414062 L 27.296875 6.472656 L 25.925781 3.074219 L 25.464844 2.292969 L 24.933594 1.566406 L 24.476562 0.722656 L 23.65625 -0.289062 L 22.539062 -2.449219 L 22.121094 -4.25 L 22.183594 -5.167969 L 23.117188 -6.15625 L 24.199219 -6.746094 L 24.992188 -6.695312 L 25.800781 -6.484375 L 26.566406 -6.179688 L 27.214844 -5.667969 L 28.15625 -4.578125 L 28.921875 -3.351562 L 29.257812 -2.582031 L 29.347656 -1.613281 L 29.34375 -0.625 L 29.070312 0.464844 L 29.238281 1.597656 L 30.707031 3.125 L 31.402344 4.121094 L 31.96875 4.820312 L 32.410156 5.503906 L 33.433594 5.769531 L 34.253906 5.570312 L 34.804688 4.890625 L 35.410156 4.285156 L 36.429688 1.835938 L 36.851562 0.21875 L 36.589844 -3.382812 L 35.667969 -5.875 L 34.839844 -7.460938 L 32.730469 -10.203125 L 31.898438 -10.800781 L 31.296875 -11.46875 L 30.683594 -12.011719 L 29.191406 -12.996094 L 27.53125 -13.617188 L 25.019531 -14.355469 L 22.390625 -14.246094 L 19.964844 -13.316406 L 18.171875 -12.035156 L 17.117188 -11.121094 L 15.921875 -9.746094 L 15.15625 -8.195312 L 14.597656 -5.605469 L 15.234375 -2.1875 L 15.832031 -0.589844 L 19.648438 5.394531 L 20.078125 7.128906 L 20.027344 7.921875 L 19.324219 8.839844 L 18.226562 9.269531 L 17.335938 9.238281 L 15.847656 8.476562 L 14.902344 7.453125 L 14.289062 6.910156 L 13.019531 4.992188 L 12.851562 4.144531 L 12.753906 3.238281 L 13.074219 1.070312 L 12.789062 0.148438 L 12.207031 -0.425781 L 11.773438 -1.171875 L 9.457031 -3.742188 L 8.667969 -4.144531 L 7.707031 -3.828125 L 7.097656 -3.160156 L 6.511719 -2.453125 L 6.054688 -1.734375 L 5.300781 -0.0234375 L 5.246094 0.832031 L 5.089844 1.710938 L 5.3125 3.554688 L 5.1875 4.464844 L 5.410156 5.382812 L 5.769531 6.25 L 6.382812 8.007812 Z M 7.300781 9.632812 "/></g></g></g><g fill="#000000" fill-opacity="1"><g transform="translate(456.836411, 299.734272)"><g><path d="M 2.066406 4.191406 L 2.605469 4.921875 L 3.34375 6.511719 L 3.925781 7.324219 L 4.515625 8.636719 L 5.582031 9.496094 L 6.546875 9.59375 L 10.652344 7.269531 L 11.945312 6.738281 L 12.757812 6.257812 L 14.230469 5.582031 L 15.0625 5.039062 L 16.609375 4.21875 L 17.15625 4.390625 L 17.207031 4.871094 L 17.027344 5.777344 L 16.683594 6.570312 L 15.917969 9.058594 L 15.554688 9.910156 L 15.089844 11.527344 L 14.9375 12.675781 L 15.359375 13.570312 L 16.375 14.050781 L 17.261719 14.289062 L 17.992188 14.515625 L 19.890625 14.933594 L 20.582031 15.28125 L 23.109375 16.023438 L 23.621094 16.414062 L 23.191406 17.046875 L 20.964844 18.125 L 19.441406 19.082031 L 17.851562 19.820312 L 16.425781 20.679688 L 15.667969 20.976562 L 13.921875 22 L 13.328125 22.316406 L 12.582031 23.117188 L 12.785156 24.078125 L 15.167969 28.964844 L 16.046875 29.566406 L 17.449219 29.433594 L 19.449219 28.222656 L 20.285156 27.882812 L 32.152344 21.503906 L 33.070312 21.121094 L 36.976562 19.003906 L 37.753906 18.644531 L 39.417969 17.660156 L 40.113281 17.34375 L 41.722656 16.441406 L 42.515625 16.125 L 43.097656 15.207031 L 43.09375 14.140625 L 42.128906 13.179688 L 41.171875 12.617188 L 38.542969 11.875 L 37.632812 11.695312 L 36.945312 11.449219 L 35.9375 11.273438 L 30.515625 9.667969 L 29.570312 9.507812 L 25.828125 8.390625 L 24.972656 7.925781 L 24.847656 6.925781 L 25.273438 6.089844 L 25.535156 5.242188 L 26.070312 4.042969 L 26.402344 2.75 L 28.5 -2.984375 L 28.683594 -3.789062 L 29.367188 -5.472656 L 29.585938 -6.402344 L 30.113281 -8 L 30.304688 -9.273438 L 30.035156 -10.550781 L 29.175781 -11.214844 L 28.109375 -11.210938 L 25.75 -9.8125 L 24.140625 -9.109375 L 23.46875 -8.652344 L 17.09375 -5.332031 L 16.34375 -4.835938 L 12.269531 -2.832031 L 11.558594 -2.355469 L 2.761719 2.246094 L 2.160156 3.125 Z M 2.066406 4.191406 "/></g></g></g><g fill="#000000" fill-opacity="1"><g transform="translate(475.760638, 336.564099)"><g><path d="M 4.296875 17.5 L 5.761719 21.238281 L 6.742188 22.738281 L 9.550781 26.101562 L 13.296875 28.316406 L 14.230469 28.660156 L 17.6875 29.511719 L 18.59375 29.585938 L 19.496094 29.472656 L 20.261719 29.539062 L 21.261719 29.445312 L 24.347656 28.8125 L 27.269531 27.761719 L 28.773438 26.964844 L 29.585938 26.367188 L 30.519531 25.871094 L 31.730469 24.691406 L 32.421875 24.171875 L 33 23.402344 L 33.375 22.738281 L 33.996094 21.960938 L 35.160156 19.628906 L 35.925781 17.035156 L 36.113281 10.871094 L 35.585938 8.828125 L 34.566406 5.847656 L 34.148438 5.03125 L 33.648438 4.238281 L 33.085938 3.558594 L 32.191406 2.035156 L 30.191406 0.21875 L 29.5 -0.242188 L 28.164062 -1.359375 L 26.539062 -2.164062 L 23.964844 -3.027344 L 23.121094 -3.210938 L 20.511719 -3.367188 L 18.554688 -3.191406 L 13.488281 -1.960938 L 10.898438 -0.722656 L 9.609375 0.339844 L 8.773438 0.855469 L 8.117188 1.503906 L 5.917969 4.3125 L 5.089844 5.851562 L 4.597656 6.59375 L 3.867188 9.96875 L 3.75 10.890625 L 3.699219 14.867188 Z M 11.566406 14.15625 L 11.628906 13.207031 L 11.496094 12.402344 L 11.863281 10.714844 L 12.65625 9.046875 L 13.140625 8.445312 L 13.585938 7.714844 L 15.777344 6.214844 L 17.878906 5.390625 L 19.191406 5.070312 L 20.875 4.925781 L 21.726562 4.96875 L 22.476562 5.316406 L 23.320312 5.5 L 24.171875 5.867188 L 24.914062 6.359375 L 26.128906 7.371094 L 26.738281 8.042969 L 27.207031 8.890625 L 27.9375 10.828125 L 28.390625 12.941406 L 28.039062 15.511719 L 27.417969 17.132812 L 26.226562 18.539062 L 25.546875 19.101562 L 24.753906 19.605469 L 24.058594 20.125 L 22.25 20.820312 L 20.011719 21.164062 L 18.132812 21.273438 L 17.347656 20.976562 L 16.589844 20.769531 L 15.667969 20.46875 L 14.253906 19.417969 L 13.691406 18.738281 L 13.109375 18.15625 L 12.804688 17.402344 L 12.355469 16.640625 Z M 11.566406 14.15625 "/></g></g></g><g clip-path="url(#f5a74cf241)"><g clip-path="url(#89848cb341)"><path fill="#9dc121" d="M 129.070312 231.242188 L 465.707031 231.242188 L 465.707031 567.878906 L 129.070312 567.878906 Z M 129.070312 231.242188 " fill-opacity="1" fill-rule="nonzero"/></g></g><g clip-path="url(#c2fe932c08)"><g clip-path="url(#7679decd34)"><path fill="#ffffff" d="M 137.113281 239.285156 L 457.664062 239.285156 L 457.664062 559.832031 L 137.113281 559.832031 Z M 137.113281 239.285156 " fill-opacity="1" fill-rule="nonzero"/></g></g><g clip-path="url(#0f1f3ab4b7)"><path fill="#9dc121" d="M 334.707031 296.550781 C 335.003906 296.351562 335.390625 296.253906 335.617188 296 C 338.398438 292.90625 341.550781 294.84375 342.640625 292.523438 C 343.132812 291.476562 343.554688 290.402344 343.980469 289.335938 C 344.425781 288.21875 343.144531 285.703125 341.972656 285.253906 C 336.964844 283.339844 336.097656 279.082031 335.1875 277.332031 C 332.285156 271.757812 334.367188 263.925781 340.242188 260.695312 C 343.375 258.972656 346.796875 257.90625 350.464844 257.992188 C 351.84375 258.027344 354.480469 257.003906 356.578125 258.121094 C 358.210938 258.992188 360.214844 257.113281 362.457031 260.046875 C 363.265625 261.105469 364.527344 261.917969 363.949219 263.605469 C 363.808594 264.015625 364.125 264.617188 364.601562 264.90625 C 365.199219 265.269531 365.449219 265.921875 365.917969 266.386719 C 366.953125 267.410156 367.328125 268.488281 366.59375 269.914062 C 365.972656 271.117188 367.179688 271.816406 367.722656 272.632812 C 368.339844 273.550781 369.339844 274.164062 369.972656 275.113281 C 371.972656 278.097656 367.683594 277.269531 369.097656 279.09375 C 370.300781 280.652344 368.582031 281.851562 369.738281 283.308594 C 370.054688 283.707031 370.015625 284.167969 369.988281 284.625 C 369.8125 287.558594 371.34375 290.085938 368.234375 291.207031 C 366.589844 291.796875 365.148438 292.777344 363.53125 293.421875 C 362.644531 293.777344 362.078125 294.480469 361.886719 295.480469 C 361.714844 296.386719 358.796875 302.746094 362.996094 303.859375 C 366.699219 304.835938 374.433594 308.078125 376.625 311.84375 C 378.070312 314.328125 378.792969 310.589844 384.96875 314.269531 C 385.753906 314.738281 385.238281 316.429688 386.75 316.914062 C 387.21875 317.066406 387.359375 317.628906 387.324219 318.089844 C 387.132812 320.597656 388.023438 323.082031 387.613281 325.558594 C 387.132812 328.488281 388.003906 331.550781 387.015625 334.339844 C 384.839844 340.496094 386.078125 348.070312 383.375 353.285156 C 379.945312 359.894531 379.269531 362.300781 375.777344 364.050781 C 374.109375 364.886719 372.988281 364.550781 371.773438 363.089844 C 368.105469 358.675781 368.074219 357.355469 367.511719 358.886719 C 366.21875 362.417969 364.714844 365.886719 363.675781 369.492188 C 362.765625 372.664062 362.296875 375.964844 361.113281 379.078125 C 360.710938 380.144531 361.28125 381.210938 361.519531 382.226562 C 362.171875 385 362.207031 387.78125 361.988281 390.589844 C 361.800781 393 360.957031 393.351562 359.867188 393.328125 C 358.074219 393.289062 358.109375 393.359375 357.667969 395.027344 C 356.253906 400.328125 362.257812 401.679688 366.417969 407.898438 C 375.160156 420.96875 384.464844 431.640625 381.507812 437.6875 C 375.046875 450.90625 375.164062 444.316406 359.121094 456.09375 C 352.578125 460.898438 344.996094 463.152344 337.003906 470.726562 C 335.433594 472.214844 333.738281 473.535156 332.402344 475.285156 C 331.714844 476.183594 331.433594 477.265625 330.726562 478.152344 C 330.34375 478.636719 330.257812 479.488281 330.992188 480.066406 C 332.140625 480.972656 329.789062 485.707031 329.175781 486.773438 C 328.390625 488.136719 328.058594 489.699219 327.988281 491.300781 C 327.898438 493.324219 327.617188 495.335938 327.683594 497.371094 C 327.699219 497.808594 327.589844 498.359375 327.328125 498.683594 C 325.402344 501.058594 327.714844 503.390625 329.160156 506.277344 C 331.71875 511.386719 326.398438 512.621094 321.996094 510.246094 C 320.421875 509.398438 322.753906 509.289062 318.90625 507.40625 C 318.566406 507.242188 318.21875 506.917969 318.234375 506.617188 C 318.355469 504.210938 313.300781 503.269531 315.207031 500.4375 C 315.441406 500.085938 315.191406 499.433594 314.5625 499.253906 C 312.949219 498.796875 312.207031 497.625 312.632812 496.039062 C 312.8125 495.371094 313.128906 494.847656 312.199219 494.460938 C 311.59375 494.207031 311.503906 493.453125 311.800781 492.992188 C 312.445312 492 311.609375 490.625 311.667969 490.382812 C 312.375 487.460938 309.753906 485.960938 308.785156 483.761719 C 307.644531 481.167969 304.964844 485.949219 303.539062 488.5 C 300.601562 493.746094 297.542969 498.925781 295.878906 504.789062 C 295.359375 506.621094 294.398438 508.328125 294.488281 510.316406 C 294.496094 510.515625 294.359375 510.835938 294.441406 510.898438 C 295.785156 511.941406 295.210938 513.757812 296.105469 514.957031 C 296.707031 515.765625 296.835938 516.679688 296.597656 517.570312 C 295.675781 521.015625 297.277344 524.078125 295.6875 525.171875 C 294.472656 526.007812 294.421875 527.515625 295.664062 528.25 C 297.304688 529.210938 297.054688 530.148438 298.675781 530.039062 C 300.347656 529.925781 300.363281 531.152344 300.832031 531.617188 C 302.621094 533.382812 302.652344 533.605469 301.507812 535.773438 C 301.203125 536.347656 300.6875 536.519531 300.128906 536.605469 C 298.71875 536.828125 297.339844 537.320312 295.945312 537.464844 C 293.59375 537.707031 291.199219 538.058594 288.835938 537.550781 C 288.316406 537.441406 287.433594 537.589844 287.558594 536.484375 C 287.589844 536.214844 286.949219 536.03125 286.550781 535.972656 C 284.527344 535.675781 283.308594 534.035156 281.695312 533.046875 C 281.457031 532.898438 281.09375 532.539062 281.242188 532.316406 C 282.011719 531.164062 280.847656 531.09375 280.398438 530.546875 C 279.507812 529.460938 278.25 528.476562 278.65625 526.78125 C 278.828125 526.070312 278.328125 525.882812 277.859375 525.691406 C 272.402344 523.46875 271.566406 518.457031 268.976562 516.996094 C 267.5 516.160156 266.820312 510.5625 270.589844 508.417969 C 284.347656 500.582031 282.492188 507.039062 290.835938 482.152344 C 292.667969 476.695312 290.832031 475.898438 294.621094 464.511719 C 295.179688 462.839844 296.5625 461.378906 297.507812 459.917969 C 301.460938 453.808594 303.507812 449.863281 305.480469 449.3125 C 306.25 449.09375 306.625 448.546875 306.757812 447.761719 C 308.191406 439.230469 312.949219 430.855469 313.886719 426.707031 C 314.464844 424.160156 315.449219 421.742188 316.480469 419.347656 C 318.328125 415.054688 319.1875 410.464844 320.460938 406 C 320.695312 405.179688 320.609375 404.417969 319.953125 403.738281 C 319.324219 403.082031 316.46875 396.433594 315.949219 393.261719 C 315.609375 391.203125 315.640625 389.085938 316.042969 387.019531 C 316.574219 384.308594 316.707031 381.539062 317.347656 378.84375 C 317.523438 378.113281 316.792969 374.933594 318.210938 373.089844 C 318.945312 372.128906 318.816406 370.742188 318.910156 369.523438 C 320.6875 346.609375 322.960938 352.421875 319.613281 320.914062 C 319.46875 319.523438 319.257812 319.425781 317.894531 319.628906 C 316.300781 319.867188 315.007812 320.835938 313.546875 321.386719 C 302.1875 325.667969 300.4375 321.378906 303.585938 328.878906 C 305.214844 332.769531 304.992188 336.554688 310.570312 344.015625 C 311.796875 345.65625 315.757812 349.226562 315.757812 354.578125 C 315.757812 360.671875 318.382812 361.300781 314.585938 367.503906 C 314.03125 368.410156 313.070312 368.699219 312.046875 368.132812 C 311.417969 367.785156 310.851562 367.878906 310.191406 368.09375 C 307.132812 369.082031 304.546875 367.28125 303.226562 367.847656 C 302.746094 368.054688 302.25 367.605469 301.808594 367.382812 C 301.023438 366.984375 301.023438 365.578125 302.261719 365.640625 C 304.425781 365.753906 302.339844 364.601562 303.25 362.164062 C 304.285156 359.382812 304.839844 356.480469 305.457031 353.59375 C 305.640625 352.738281 305.542969 351.980469 304.914062 351.324219 C 299.289062 345.480469 301.597656 348.585938 294.503906 339.109375 C 291.460938 335.046875 286.21875 323.742188 285.324219 322.328125 C 284.695312 321.328125 285.152344 320.226562 285.097656 319.183594 C 285.035156 317.953125 286.132812 317.585938 287.054688 317.105469 C 291.082031 315.015625 292.304688 311.054688 302.0625 307.703125 C 308.792969 305.394531 311.5625 305.734375 313.707031 303.125 C 315.683594 300.71875 318.476562 299.269531 321.613281 298.664062 C 323.210938 298.351562 324.667969 297.484375 326.347656 297.460938 C 330.617188 297.402344 332.464844 298.050781 334.707031 296.550781 Z M 318.207031 466.609375 C 325.019531 466.953125 330.214844 460.460938 333.222656 457.664062 C 335.695312 455.371094 337.976562 452.8125 339.5625 449.839844 C 346.609375 436.632812 355.019531 435.1875 356.5 434.6875 C 357.398438 434.386719 357.742188 433.242188 356.996094 432.6875 C 355.730469 431.746094 354.425781 430.695312 352.964844 430.21875 C 348.980469 428.914062 347.386719 426.8125 346.199219 429.589844 C 345.179688 431.980469 344.675781 431.316406 342.296875 436.09375 C 341.546875 437.601562 340.960938 439.511719 338.671875 439.515625 C 338.171875 439.515625 337.964844 440.042969 337.648438 440.371094 C 335.921875 442.136719 334.410156 444.121094 332.335938 445.539062 C 330.457031 446.824219 328.875 450.34375 328.097656 452.472656 C 325.753906 458.886719 318.824219 460.066406 316.878906 464.875 C 316.378906 466.113281 317.097656 466.554688 318.207031 466.609375 Z M 380.917969 329.480469 C 380.988281 328.539062 380.792969 325.707031 379.753906 325.898438 C 379.179688 326.007812 379.40625 326.734375 379.433594 327.21875 C 379.644531 331.066406 377.804688 329.371094 378.355469 331.414062 C 379.058594 334.015625 378.40625 335.230469 379.550781 335.238281 C 381.066406 335.25 380.640625 331.113281 380.917969 329.480469 Z M 379.746094 315.550781 C 379.550781 315.183594 378.4375 315.207031 378.625 315.695312 C 378.761719 316.058594 379.117188 315.929688 379.398438 315.921875 C 379.628906 315.917969 379.761719 315.800781 379.746094 315.550781 Z M 379.746094 315.550781 " fill-opacity="1" fill-rule="nonzero"/></g><g clip-path="url(#28bcd8b9be)"><g clip-path="url(#6bd0fe8538)"><path fill="#000000" d="M 88.015625 383.640625 L 115.820312 383.640625 L 115.820312 411.445312 L 88.015625 411.445312 Z M 88.015625 383.640625 " fill-opacity="1" fill-rule="nonzero"/></g></g><g clip-path="url(#2616046ff6)"><g clip-path="url(#a07a7214cb)"><path fill="#000000" d="M 479.929688 383.640625 L 507.734375 383.640625 L 507.734375 411.445312 L 479.929688 411.445312 Z M 479.929688 383.640625 " fill-opacity="1" fill-rule="nonzero"/></g></g><g fill="#000000" fill-opacity="1"><g transform="translate(79.254313, 443.260669)"><g><path d="M 5.609375 19.828125 L 6.496094 21.058594 L 8.542969 21.800781 L 10.375 22.046875 L 11.683594 22.015625 L 13.851562 22.53125 L 15.101562 22.519531 L 16.480469 22.71875 L 17.5625 22.757812 L 18.785156 23.066406 L 24.683594 23.675781 L 26.066406 23.683594 L 28.214844 24.144531 L 41.542969 25.449219 L 42.75 25.703125 L 45.113281 26.035156 L 46.289062 25.980469 L 48.628906 26.445312 L 50.296875 26.363281 L 51.40625 25.703125 L 51.316406 24.605469 L 51.054688 23.367188 L 50.90625 22.285156 L 50.453125 21.234375 L 50.042969 20.109375 L 49.59375 17.863281 L 48.457031 16.835938 L 47.183594 16.167969 L 32.949219 14.765625 L 31.640625 14.796875 L 30.507812 14.585938 L 29.410156 14.679688 L 28.199219 14.425781 L 24.644531 14.28125 L 23.4375 14.027344 L 23.355469 13.363281 L 25.996094 10.972656 L 27.011719 10.40625 L 28.652344 8.828125 L 35.195312 3.65625 L 37.765625 1.226562 L 41.613281 -1.730469 L 42.28125 -3.003906 L 42.441406 -4.496094 L 41.542969 -7.792969 L 41.015625 -8.882812 L 40.339844 -11.054688 L 39.652344 -11.84375 L 38.367188 -11.945312 L 34.078125 -8.601562 L 33.398438 -7.765625 L 32.398438 -7.140625 L 31.398438 -6.328125 L 30.738281 -5.429688 L 29.660156 -4.65625 L 19.710938 4.085938 L 18.675781 4.785156 L 16.148438 7.140625 L 15.070312 7.914062 L 13.429688 9.492188 L 12.597656 10.441406 L 11.542969 11.082031 L 6.824219 15.0625 L 6.125 15.84375 L 5.507812 17.289062 L 5.441406 18.691406 Z M 5.609375 19.828125 "/></g></g></g><g fill="#000000" fill-opacity="1"><g transform="translate(103.025664, 504.987635)"><g><path d="M 10.625 17.019531 L 12.019531 18.972656 L 13.105469 19.554688 L 14.386719 19.445312 L 19.375 16.246094 L 19.945312 15.027344 L 19.789062 13.5625 L 19.113281 12.503906 L 18.738281 11.035156 L 19.511719 9.6875 L 20.566406 9.226562 L 26.078125 5.621094 L 27.253906 5.007812 L 30.753906 2.480469 L 35.976562 -0.582031 L 37.363281 -0.972656 L 38.527344 -0.152344 L 39.324219 0.757812 L 40.40625 1.558594 L 41.535156 1.546875 L 46.558594 -1.601562 L 47.128906 -2.824219 L 47.101562 -4.085938 L 43.191406 -10.1875 L 42.710938 -11.160156 L 41.863281 -12.039062 L 39.214844 -16.171875 L 38.75 -17.226562 L 38.007812 -18.386719 L 36.859375 -19.070312 L 35.324219 -18.800781 L 31.691406 -16.257812 L 30.667969 -15.746094 L 30.015625 -14.542969 L 30.171875 -13.078125 L 30.816406 -12.070312 L 30.828125 -10.722656 L 29.757812 -9.398438 L 14.375 0.675781 L 12.507812 1.089844 L 9.363281 -1.59375 L 8.101562 -1.566406 L 3.367188 1.257812 L 2.328125 2.632812 L 2.519531 3.933594 L 3.132812 4.890625 L 3.847656 5.785156 L 4.585938 7.375 L 5.636719 8.90625 L 6.382812 9.851562 L 7.476562 11.996094 L 8.648438 13.378906 L 10.230469 15.851562 Z M 10.625 17.019531 "/></g></g></g><g fill="#000000" fill-opacity="1"><g transform="translate(133.799981, 547.714296)"><g><path d="M 4.796875 1.539062 L 4.035156 2.960938 L 4.457031 4.175781 L 5.25 5.082031 L 7.207031 6.671875 L 8.832031 8.355469 L 10.574219 9.824219 L 11.28125 10.734375 L 12.324219 11.546875 L 20.9375 19.695312 L 22.175781 20.039062 L 23.925781 19.132812 L 27.199219 15.550781 L 28.035156 13.871094 L 27.738281 12.609375 L 26.738281 11.839844 L 25.746094 11.234375 L 24.949219 10.246094 L 23.117188 8.609375 L 22.40625 7.617188 L 21.496094 7.011719 L 19.875 5.324219 L 18.875 4.554688 L 18.328125 3.382812 L 18.796875 2.183594 L 32.722656 -12.59375 L 33.617188 -13.722656 L 35.34375 -15.390625 L 37.542969 -18.003906 L 38.367188 -18.792969 L 38.832031 -20.164062 L 38.449219 -21.507812 L 36.742188 -23.105469 L 35.703125 -23.746094 L 34.121094 -25.558594 L 33.167969 -26.207031 L 31.921875 -26.71875 L 30.628906 -26.125 L 24.894531 -20.003906 L 24.03125 -19.257812 L 23.300781 -18.300781 L 21.652344 -16.808594 L 20.796875 -15.804688 L 20.105469 -14.890625 Z M 4.796875 1.539062 "/></g></g></g><g fill="#000000" fill-opacity="1"><g transform="translate(178.288594, 584.799227)"><g><path d="M 5.03125 0.25 L 4.664062 1.820312 L 5.382812 2.886719 L 6.382812 3.558594 L 8.683594 4.589844 L 10.683594 5.800781 L 12.746094 6.769531 L 13.664062 7.464844 L 14.882812 7.984375 L 25.304688 13.640625 L 26.589844 13.652344 L 28.046875 12.324219 L 30.289062 8.023438 L 30.660156 6.183594 L 30.050781 5.042969 L 28.886719 4.554688 L 27.769531 4.226562 L 26.746094 3.472656 L 24.554688 2.367188 L 23.613281 1.589844 L 22.578125 1.238281 L 20.578125 0.0273438 L 19.410156 -0.460938 L 18.582031 -1.449219 L 18.726562 -2.730469 L 28.375 -20.59375 L 28.949219 -21.917969 L 30.1875 -23.972656 L 31.640625 -27.0625 L 32.234375 -28.039062 L 32.328125 -29.484375 L 31.613281 -30.683594 L 29.554688 -31.785156 L 28.386719 -32.140625 L 26.386719 -33.484375 L 25.300781 -33.863281 L 23.964844 -34.035156 L 22.867188 -33.128906 L 18.90625 -25.742188 L 18.261719 -24.796875 L 17.800781 -23.683594 L 16.59375 -21.816406 L 16.023438 -20.625 L 15.59375 -19.566406 Z M 5.03125 0.25 "/></g></g></g><g fill="#000000" fill-opacity="1"><g transform="translate(231.258657, 609.812449)"><g><path d="M 34.574219 7.277344 L 36.839844 7.5625 L 37.929688 7.910156 L 39.761719 8.226562 L 41.464844 8.273438 L 41.929688 6.902344 L 41.800781 5.46875 L 41.367188 3.117188 L 40.417969 -0.257812 L 40.042969 -2.597656 L 39.308594 -4.953125 L 38.183594 -10.75 L 37.78125 -11.75 L 37.425781 -12.988281 L 37.339844 -14.351562 L 36.992188 -15.339844 L 36.835938 -16.351562 L 36.054688 -18.773438 L 35.898438 -20.089844 L 33.714844 -29.042969 L 33.605469 -30.289062 L 33.179688 -31.480469 L 33.046875 -32.605469 L 32.355469 -34.890625 L 31.578125 -36.152344 L 29.761719 -37.140625 L 27.753906 -36.882812 L 26.492188 -36.105469 L 25.757812 -35.214844 L 25.105469 -34.128906 L 24.40625 -33.417969 L 20.945312 -28.507812 L 20.117188 -27.761719 L 19.582031 -26.648438 L 18.703125 -25.667969 L 18.132812 -24.683594 L 9.554688 -13.371094 L 8.9375 -12.15625 L 8.167969 -11.398438 L 7.515625 -10.308594 L 6.070312 -8.652344 L 4.707031 -6.488281 L 3.890625 -5.800781 L 3.378906 -4.804688 L 1.722656 -2.703125 L 1.125 -1.601562 L 1.117188 -0.0742188 L 2.214844 0.519531 L 4.527344 0.875 L 5.675781 1.234375 L 8.984375 1.796875 L 10.417969 1.667969 L 11.75 0.84375 L 13.207031 -0.875 L 14.550781 -1.757812 L 15.917969 -2.148438 L 16.996094 -1.742188 L 19.507812 -1.46875 L 20.527344 -1.074219 L 26.285156 0.0585938 L 27.316406 0.394531 L 28.644531 0.484375 L 29.800781 1.398438 L 30.71875 2.566406 L 31.015625 3.789062 L 31.148438 4.917969 L 32.140625 6.039062 L 33.367188 6.90625 Z M 24.285156 -10.078125 L 23.160156 -10.558594 L 21.789062 -10.71875 L 20.933594 -11.324219 L 21.105469 -12.449219 L 25.171875 -18.214844 L 25.929688 -18.605469 L 26.652344 -17.96875 L 28.074219 -10.945312 L 27.621094 -9.941406 L 26.644531 -9.652344 Z M 24.285156 -10.078125 "/></g></g></g><g fill="#000000" fill-opacity="1"><g transform="translate(300.712521, 619.726363)"><g><path d="M 20.546875 -1.609375 L 21.925781 -2.234375 L 23.054688 -4.101562 L 23.652344 -5.847656 L 23.878906 -7.136719 L 24.8125 -9.160156 L 25.046875 -10.390625 L 25.511719 -11.703125 L 25.761719 -12.753906 L 26.304688 -13.894531 L 28.058594 -19.558594 L 28.339844 -20.910156 L 29.210938 -22.929688 L 33.109375 -35.742188 L 33.59375 -36.875 L 34.378906 -39.125 L 34.558594 -40.289062 L 35.472656 -42.492188 L 35.722656 -44.144531 L 35.292969 -45.363281 L 34.195312 -45.488281 L 32.933594 -45.476562 L 31.839844 -45.542969 L 30.722656 -45.308594 L 29.539062 -45.121094 L 27.25 -45.125 L 26.019531 -44.210938 L 25.113281 -43.09375 L 20.945312 -29.410156 L 20.71875 -28.121094 L 20.289062 -27.054688 L 20.164062 -25.957031 L 19.679688 -24.820312 L 18.839844 -21.363281 L 18.355469 -20.226562 L 17.6875 -20.277344 L 15.863281 -23.339844 L 15.503906 -24.445312 L 14.28125 -26.363281 L 10.492188 -33.796875 L 8.613281 -36.789062 L 6.46875 -41.140625 L 5.351562 -42.046875 L 3.917969 -42.5 L 0.511719 -42.265625 L -0.660156 -41.960938 L -2.921875 -41.722656 L -3.832031 -41.207031 L -4.183594 -39.964844 L -1.75 -35.101562 L -1.058594 -34.273438 L -0.644531 -33.171875 L -0.0429688 -32.03125 L 0.707031 -31.203125 L 1.253906 -29.996094 L 7.875 -18.527344 L 8.355469 -17.375 L 10.171875 -14.433594 L 10.71875 -13.226562 L 11.941406 -11.304688 L 12.710938 -10.304688 L 13.132812 -9.144531 L 16.109375 -3.734375 L 16.738281 -2.898438 L 18.035156 -2.007812 L 19.394531 -1.667969 Z M 20.546875 -1.609375 "/></g></g></g><g fill="#000000" fill-opacity="1"><g transform="translate(366.333192, 608.649792)"><g><path d="M 19.34375 -7.757812 L 27.21875 -11.125 L 28.175781 -12.101562 L 28.308594 -13.515625 L 26.007812 -19.109375 L 24.941406 -19.96875 L 23.574219 -19.988281 L 22.347656 -19.355469 L 21.226562 -19.085938 L 18.378906 -17.980469 L 16.640625 -17.007812 L 15.488281 -16.664062 L 14.292969 -16.105469 L 13.171875 -15.839844 L 12 -15.230469 L 10.609375 -15.304688 L 9.753906 -16.117188 L 8.320312 -19.609375 L 8.339844 -20.976562 L 9.085938 -21.996094 L 10.726562 -22.734375 L 12.566406 -23.296875 L 14.625 -24.273438 L 16.917969 -25.152344 L 17.980469 -25.71875 L 19.277344 -26.1875 L 20.203125 -27.085938 L 20.136719 -28.351562 L 18.253906 -33.40625 L 17.0625 -34.726562 L 15.492188 -34.925781 L 12.222656 -33.582031 L 11.105469 -32.992188 L 8.710938 -32.203125 L 5.542969 -30.769531 L 4.175781 -30.789062 L 3.027344 -32.324219 L 2.320312 -34.042969 L 2.386719 -35.300781 L 3.421875 -36.242188 L 4.5 -36.621094 L 5.460938 -37.273438 L 13.425781 -40.421875 L 14.457031 -40.910156 L 15.34375 -42.050781 L 15.488281 -43.277344 L 14.976562 -44.363281 L 14.578125 -45.492188 L 13.101562 -48.769531 L 12.167969 -49.617188 L 10.878906 -49.605469 L 9.714844 -49.125 L 8.628906 -48.9375 L 4.164062 -47.039062 L 2.992188 -46.425781 L 1.839844 -46.082031 L 0.917969 -45.640625 L -0.234375 -45.292969 L -4.730469 -43.316406 L -5.90625 -43.027344 L -6.867188 -42.371094 L -7.910156 -42.074219 L -8.972656 -41.507812 L -10.101562 -41.109375 L -11.082031 -40.1875 L -11.214844 -38.773438 L -10.238281 -36.714844 L -9.472656 -34.375 L -8.804688 -33.222656 L -6.683594 -27.75 L -6.039062 -26.65625 L -5.714844 -25.558594 L -3.90625 -20.992188 L -3.328125 -20.0625 L 0.304688 -11.070312 L 0.628906 -9.96875 L 1.25 -8.929688 L 2.652344 -5.042969 L 3.265625 -3.867188 L 4.324219 -2.554688 L 6.28125 -2.519531 L 10.292969 -4.101562 L 11.464844 -4.714844 L 12.484375 -5.070312 L 14.6875 -6.167969 L 15.832031 -6.378906 L 17.128906 -6.847656 L 18.191406 -7.414062 Z M 19.34375 -7.757812 "/></g></g></g><g fill="#000000" fill-opacity="1"><g transform="translate(421.098712, 582.577424)"><g><path d="M 1.953125 -4.730469 L 3.585938 -3.664062 L 5.425781 -4.148438 L 6.246094 -5.039062 L 7.851562 -6.101562 L 8.519531 -6.796875 L 9.917969 -7.925781 L 11.035156 -9.59375 L 10.363281 -11.285156 L 9.085938 -12.867188 L 8.503906 -13.78125 L 7.574219 -14.648438 L 5.257812 -17.707031 L 4.925781 -18.976562 L 5.398438 -20.207031 L 8.402344 -22.011719 L 9.972656 -21.972656 L 11.285156 -21.492188 L 12.335938 -20.953125 L 14.441406 -20.34375 L 16.683594 -19.382812 L 17.757812 -19.097656 L 18.882812 -18.464844 L 20.035156 -18.085938 L 21.738281 -18.074219 L 23.660156 -18.933594 L 27.304688 -21.949219 L 28.265625 -22.570312 L 29.765625 -23.859375 L 30.3125 -24.992188 L 29.765625 -26.242188 L 28.425781 -26.855469 L 27.339844 -27.054688 L 26.253906 -27.640625 L 22.75 -28.738281 L 21.65625 -29.242188 L 18.207031 -30.460938 L 17.085938 -30.710938 L 16.136719 -31.789062 L 15.726562 -33.152344 L 15.816406 -34.378906 L 16.019531 -35.464844 L 15.203125 -40.195312 L 13.628906 -43.386719 L 11.167969 -46.25 L 10.273438 -47.066406 L 7.292969 -49.046875 L 6.28125 -49.539062 L 5.167969 -49.871094 L 0.253906 -50.523438 L -2.09375 -50.09375 L -4.351562 -49.273438 L -7.5 -47.734375 L -9.027344 -46.578125 L -10.304688 -45.394531 L -13.101562 -43.136719 L -14.183594 -42.574219 L -15.117188 -41.820312 L -15.765625 -40.910156 L -16.699219 -40.160156 L -17.78125 -39.59375 L -18.84375 -38.8125 L -21.40625 -36.359375 L -21.871094 -35.21875 L -21.375 -33.460938 L -12.71875 -22.824219 L -11.875 -21.96875 L -10.507812 -19.992188 L -9.636719 -19.003906 L -8.882812 -18.070312 L -8.074219 -17.261719 L -7.453125 -16.300781 L -4.457031 -12.488281 L -3.609375 -11.628906 Z M -0.617188 -27.664062 L -1.964844 -27.425781 L -2.9375 -27.867188 L -5.195312 -30.664062 L -5.925781 -31.382812 L -7.410156 -33.414062 L -7.707031 -34.640625 L -7.027344 -35.800781 L -6.058594 -36.507812 L -4.34375 -38.199219 L -2.8125 -38.972656 L -1.527344 -39.855469 L -0.453125 -40.335938 L 1.878906 -39.832031 L 2.757812 -39.3125 L 3.921875 -38.25 L 4.910156 -36.738281 L 5.242188 -35.46875 L 5.292969 -34.355469 L 5.121094 -33.523438 L 4.582031 -32.472656 L 3.492188 -31.054688 L 2.644531 -30.296875 L 0.332031 -28.582031 Z M -0.617188 -27.664062 "/></g></g></g><g fill="#000000" fill-opacity="1"><g transform="translate(471.674201, 536.60239)"><g><path d="M 10.265625 -15.324219 L 11.25 -16.828125 L 12.070312 -18.511719 L 12.726562 -19.511719 L 13.226562 -21.261719 L 14.222656 -23.542969 L 14.765625 -26.554688 L 14.714844 -31.386719 L 13.167969 -35.910156 L 12.496094 -37.066406 L 12.089844 -38.195312 L 10.660156 -40.277344 L 9.875 -41.152344 L 8.953125 -42.042969 L 8.296875 -42.898438 L 7.394531 -43.707031 L 6.34375 -44.398438 L 4.839844 -45.597656 L 3.355469 -46.5 L -1.0625 -48.394531 L -3.390625 -48.992188 L -4.605469 -49.214844 L -8.375 -49.253906 L -13.070312 -48.535156 L -16.449219 -47.097656 L -17.625 -46.507812 L -18.480469 -45.640625 L -19.441406 -45.050781 L -20.378906 -44.164062 L -22.769531 -41.503906 L -30.355469 -30.152344 L -30.796875 -29.152344 L -31.503906 -28.183594 L -31.777344 -26.785156 L -31.019531 -25.644531 L -3.0625 -7.234375 L -2.042969 -6.710938 L 0.511719 -5.035156 L 2.390625 -4.519531 L 3.546875 -5.191406 L 4.105469 -6.257812 L 8.210938 -12.304688 L 8.71875 -13.402344 Z M 1.957031 -20.5625 L 1.230469 -19.675781 L -0.0742188 -18.886719 L -1.289062 -19.109375 L -2.171875 -19.617188 L -4.195312 -21.011719 L -6.777344 -22.421875 L -9.152344 -24.265625 L -16.128906 -28.699219 L -16.914062 -29.355469 L -17.738281 -30.613281 L -17.035156 -32.445312 L -15.707031 -34.582031 L -14.605469 -35.933594 L -12.773438 -37.527344 L -11.730469 -38.132812 L -10.6875 -38.523438 L -9.492188 -38.8125 L -8.097656 -38.972656 L -6.917969 -38.914062 L -5.722656 -38.773438 L -0.789062 -36.6875 L 2.386719 -33.886719 L 3.679688 -31.820312 L 4.570312 -28.585938 L 4.554688 -26.160156 L 4.050781 -24.414062 L 2.890625 -22.097656 Z M 1.957031 -20.5625 "/></g></g></g><g fill="#000000" fill-opacity="1"><g transform="translate(506.100851, 475.808825)"><g><path d="M 6.070312 -19.9375 L 8.378906 -28.1875 L 8.21875 -29.542969 L 7.199219 -30.53125 L 1.394531 -32.242188 L 0.0625 -31.949219 L -0.8125 -30.898438 L -1.085938 -29.542969 L -1.582031 -28.5 L -2.503906 -25.589844 L -2.832031 -23.625 L -3.285156 -22.511719 L -3.601562 -21.230469 L -4.097656 -20.191406 L -4.355469 -18.890625 L -5.285156 -17.855469 L -6.453125 -17.703125 L -10.070312 -18.769531 L -11.125 -19.640625 L -11.453125 -20.863281 L -11 -22.601562 L -10.285156 -24.390625 L -9.757812 -26.605469 L -9.003906 -28.945312 L -8.78125 -30.125 L -8.335938 -31.429688 L -8.453125 -32.714844 L -9.484375 -33.457031 L -14.605469 -35.152344 L -16.382812 -35.054688 L -17.519531 -33.953125 L -18.519531 -30.5625 L -18.757812 -29.324219 L -19.644531 -26.960938 L -20.511719 -23.597656 L -21.382812 -22.542969 L -23.300781 -22.609375 L -25.082031 -23.132812 L -26.019531 -23.972656 L -26.105469 -25.371094 L -25.726562 -26.445312 L -25.632812 -27.605469 L -23.097656 -35.785156 L -22.832031 -36.894531 L -23.164062 -38.304688 L -24.03125 -39.183594 L -25.195312 -39.464844 L -26.328125 -39.863281 L -29.808594 -40.761719 L -31.050781 -40.570312 L -31.851562 -39.554688 L -32.207031 -38.347656 L -32.742188 -37.382812 L -34.054688 -32.714844 L -34.3125 -31.414062 L -34.765625 -30.300781 L -35 -29.308594 L -35.453125 -28.191406 L -36.726562 -23.449219 L -37.238281 -22.351562 L -37.332031 -21.191406 L -37.75 -20.191406 L -37.972656 -19.007812 L -38.371094 -17.878906 L -38.265625 -16.535156 L -37.246094 -15.546875 L -35.03125 -15.019531 L -32.726562 -14.152344 L -31.410156 -13.949219 L -25.816406 -12.175781 L -24.558594 -11.992188 L -23.503906 -11.554688 L -18.808594 -10.109375 L -17.722656 -9.976562 L -8.4375 -7.171875 L -7.378906 -6.734375 L -6.179688 -6.570312 L -2.265625 -5.226562 L -0.96875 -4.96875 L 0.71875 -4.972656 L 1.972656 -6.472656 L 3.25 -10.59375 L 3.507812 -11.890625 L 3.871094 -12.90625 L 4.394531 -15.3125 L 4.945312 -16.335938 L 5.390625 -17.640625 L 5.617188 -18.824219 Z M 6.070312 -19.9375 "/></g></g></g><g clip-path="url(#08dae78386)"><path fill="#9f4797" d="M 274.5625 325.445312 C 274.640625 325.445312 274.871094 325.570312 275.078125 325.722656 C 275.523438 326.050781 275.863281 326.445312 276.269531 327.082031 C 276.625 327.632812 276.679688 328.699219 276.414062 329.863281 C 276.183594 330.871094 276.21875 333.261719 276.492188 335.242188 C 276.605469 336.101562 276.777344 338.019531 276.875 339.511719 C 277.105469 342.996094 277.589844 348.191406 277.878906 350.246094 C 278.28125 353.136719 279.058594 356.214844 279.625 357.199219 C 280.085938 357.976562 280.238281 358.476562 280.085938 358.75 C 280.015625 358.890625 279.902344 358.960938 279.742188 358.960938 C 279.503906 358.960938 279.160156 358.804688 278.691406 358.488281 C 277.464844 357.65625 275.859375 357.273438 273.535156 357.273438 C 273.320312 357.273438 273.097656 357.277344 272.867188 357.28125 C 272.585938 357.289062 272.355469 357.292969 272.15625 357.292969 C 271.449219 357.292969 271.214844 357.238281 270.816406 357.042969 C 270.15625 356.730469 269.097656 355.714844 268.769531 355.101562 C 268.648438 354.871094 268.453125 354.550781 268.320312 354.375 C 268.203125 354.195312 267.808594 353.621094 267.464844 353.097656 C 267.082031 352.511719 266.039062 351.34375 264.796875 350.113281 C 263.6875 348.996094 262.351562 347.535156 261.839844 346.871094 C 260.316406 344.871094 257.320312 340.398438 256.855469 339.425781 C 255.5 336.597656 254.671875 334.371094 254.617188 333.367188 C 254.535156 332.199219 255.503906 331.566406 258.238281 330.960938 C 260.074219 330.558594 261.601562 330.152344 263.277344 329.613281 C 263.765625 329.453125 264.496094 329.222656 264.882812 329.113281 C 265.265625 328.992188 265.636719 328.859375 265.714844 328.792969 C 265.777344 328.742188 266.046875 328.644531 266.289062 328.589844 C 266.535156 328.535156 266.90625 328.414062 267.121094 328.320312 C 267.328125 328.230469 267.828125 328.027344 268.210938 327.882812 C 269.644531 327.347656 270.835938 326.867188 270.960938 326.773438 C 271.332031 326.511719 274.1875 325.453125 274.5625 325.445312 Z M 303.152344 256.984375 C 302.554688 256.984375 301.886719 256.996094 301.117188 257.015625 C 298.773438 257.085938 298.078125 257.148438 297.105469 257.382812 C 294.71875 257.980469 292.722656 258.835938 291.628906 259.726562 C 291.347656 259.949219 290.890625 260.304688 290.609375 260.5 C 290.097656 260.855469 288.601562 262.410156 287.753906 263.449219 C 287.3125 263.984375 287.300781 263.996094 285.707031 264.328125 C 283.113281 264.867188 281.117188 265.671875 280.164062 266.535156 C 279.007812 267.582031 277.433594 270.101562 275.960938 273.289062 C 274.25 276.96875 273.8125 277.824219 272.929688 279.1875 C 271.507812 281.386719 270.402344 282.367188 268.546875 283.039062 C 267.136719 283.546875 266.765625 283.757812 265.722656 284.621094 C 264.628906 285.527344 264.453125 285.722656 264.101562 286.460938 C 263.839844 287.019531 263.828125 287.277344 263.808594 291.164062 C 263.796875 294.921875 263.777344 295.347656 263.53125 296.023438 C 263.0625 297.367188 261.542969 299.332031 260.558594 299.847656 C 260.367188 299.953125 260.214844 300.097656 260.21875 300.164062 C 260.21875 300.226562 260.066406 300.371094 259.859375 300.476562 L 259.515625 300.675781 L 259.980469 300.679688 C 260.457031 300.675781 261.671875 300.117188 263.191406 299.207031 C 263.746094 298.867188 264.109375 298.707031 264.394531 298.707031 C 264.605469 298.707031 264.769531 298.792969 264.9375 298.960938 C 265.355469 299.40625 265.492188 299.882812 265.507812 301 C 265.519531 301.953125 265.546875 302.03125 265.832031 302.15625 C 265.925781 302.199219 266 302.222656 266.074219 302.222656 C 266.214844 302.222656 266.351562 302.136719 266.601562 301.9375 C 267.417969 301.296875 267.820312 300.660156 267.949219 299.78125 C 268.171875 298.246094 268.742188 297.542969 270.53125 296.617188 C 272.179688 295.753906 273.460938 294.425781 274.589844 292.386719 C 275.097656 291.464844 275.519531 290.972656 275.773438 290.972656 C 275.835938 290.972656 275.890625 291.003906 275.933594 291.066406 C 276 291.167969 276.058594 291.773438 276.070312 292.40625 C 276.085938 293.609375 276.261719 294.117188 276.675781 294.117188 C 276.707031 294.117188 276.742188 294.113281 276.777344 294.105469 C 277.300781 294.023438 277.488281 293.414062 277.550781 291.480469 C 277.621094 289.371094 277.84375 288.566406 278.503906 288.03125 C 278.871094 287.730469 279.191406 287.574219 279.425781 287.574219 C 279.550781 287.574219 279.648438 287.617188 279.722656 287.703125 C 280.0625 288.097656 279.476562 291.105469 278.65625 293.28125 C 278.296875 294.222656 278.203125 294.753906 278.378906 294.753906 C 278.378906 294.753906 278.382812 294.753906 278.382812 294.753906 C 278.601562 294.75 279.3125 294.222656 279.488281 293.9375 C 279.589844 293.769531 279.914062 293.058594 280.1875 292.34375 C 281.457031 289.1875 282.285156 287.730469 283.414062 286.722656 C 283.785156 286.398438 284.242188 285.902344 284.429688 285.617188 C 284.757812 285.132812 284.78125 285.003906 284.753906 283.859375 C 284.738281 282.945312 284.652344 282.367188 284.410156 281.664062 C 284.019531 280.445312 283.953125 279.238281 284.273438 279.078125 C 284.398438 279.011719 284.605469 278.90625 284.71875 278.839844 C 284.886719 278.761719 284.933594 278.617188 284.890625 278.359375 C 284.777344 277.589844 284.792969 276.855469 284.933594 276.804688 C 284.964844 276.792969 284.992188 276.789062 285.019531 276.789062 C 285.28125 276.789062 285.507812 277.214844 285.515625 277.761719 C 285.527344 278.648438 285.925781 281.4375 286.175781 282.476562 C 286.722656 284.757812 287.714844 286.636719 288.925781 287.648438 C 289.132812 287.828125 289.851562 288.304688 290.539062 288.71875 C 292.539062 289.941406 293.042969 290.964844 293.082031 293.871094 C 293.101562 295.144531 293.054688 295.519531 292.832031 296.101562 C 292.683594 296.492188 292.507812 296.894531 292.421875 296.996094 C 292.34375 297.101562 292.207031 297.359375 292.105469 297.566406 C 291.78125 298.253906 290.601562 299.445312 289.910156 299.800781 C 289.542969 299.988281 288.695312 300.28125 288.027344 300.457031 C 287.363281 300.636719 286.09375 300.976562 285.207031 301.207031 C 282.71875 301.875 280.949219 302.425781 279.441406 303.003906 C 279.054688 303.148438 278.53125 303.351562 278.289062 303.445312 C 275.523438 304.5 270.488281 307.121094 267.03125 309.335938 C 264.148438 311.179688 263.703125 311.492188 262.8125 312.265625 C 262.378906 312.644531 261.742188 313.183594 261.386719 313.457031 C 261.03125 313.746094 260.457031 314.21875 260.128906 314.53125 C 259.796875 314.84375 259.109375 315.382812 258.601562 315.738281 C 257.492188 316.511719 253.96875 318.699219 252.640625 319.429688 C 252.117188 319.71875 251.3125 320.179688 250.851562 320.457031 C 250.394531 320.722656 249.652344 321.15625 249.191406 321.421875 C 248.734375 321.671875 248.300781 321.949219 248.238281 322.027344 C 248.160156 322.105469 247.445312 322.617188 246.644531 323.171875 C 243.570312 325.234375 243.277344 325.445312 241.867188 326.625 C 240.300781 327.921875 240.125 328.117188 239.636719 329.140625 C 238.835938 330.839844 238.71875 334.292969 239.371094 336.636719 C 239.683594 337.777344 240.613281 339.8125 241.136719 340.511719 C 243.316406 343.390625 243.929688 344.078125 246.371094 346.449219 C 253.359375 353.261719 254.375 354.125 258.0625 356.441406 C 258.816406 356.90625 259.636719 357.484375 259.886719 357.726562 C 261.269531 359.019531 262.765625 361.058594 263.957031 363.253906 C 266.519531 367.996094 268.054688 369.96875 270.34375 371.429688 C 270.925781 371.804688 271.761719 372.476562 272.191406 372.921875 C 273.109375 373.886719 273.664062 374.242188 274.238281 374.242188 C 274.246094 374.242188 274.25 374.242188 274.257812 374.242188 C 274.265625 374.242188 274.277344 374.242188 274.285156 374.242188 C 274.90625 374.242188 275.574219 374.550781 275.578125 374.855469 C 275.585938 375.214844 275.183594 376.070312 274.441406 377.265625 C 273.648438 378.550781 271.503906 382.445312 271.015625 383.496094 C 269.894531 385.890625 269.140625 388.183594 268.574219 390.804688 C 268.34375 391.902344 268.3125 392.402344 268.359375 395.503906 C 268.386719 398.335938 268.4375 399.171875 268.628906 400.007812 C 268.765625 400.570312 268.929688 401.289062 269 401.609375 C 269.207031 402.523438 269.605469 403.496094 270.332031 404.875 C 271.0625 406.28125 271.253906 407.039062 271.046875 407.824219 C 270.921875 408.328125 270.023438 410.066406 269.214844 411.328125 C 268.160156 413.003906 266.089844 417.757812 265.054688 420.914062 C 264.644531 422.144531 263.542969 425.183594 262.8125 427.125 C 262.414062 428.1875 261.820312 429.765625 261.511719 430.621094 C 261.203125 431.472656 260.890625 432.289062 260.828125 432.433594 C 260.765625 432.574219 260.542969 433.183594 260.332031 433.792969 C 260.125 434.386719 259.550781 435.757812 259.0625 436.835938 C 258.578125 437.898438 258.117188 438.984375 258.03125 439.230469 C 257.574219 440.550781 256.660156 442.445312 256.203125 443.003906 C 255.375 444.027344 254.160156 444.535156 252.523438 444.535156 C 250.886719 444.535156 248.824219 444.023438 246.304688 443.003906 C 244.179688 442.148438 242.550781 441.707031 240.425781 441.402344 C 239.089844 441.214844 237.488281 441.117188 236.089844 441.117188 C 235.203125 441.117188 234.398438 441.15625 233.792969 441.238281 C 231.53125 441.542969 230.128906 441.792969 229.234375 442.027344 C 228.347656 442.246094 227.988281 442.339844 224.808594 443.195312 C 222.640625 443.769531 222.5625 443.796875 220.511719 444.289062 C 219.523438 444.535156 218.328125 444.808594 217.867188 444.894531 C 217.019531 445.058594 215.839844 445.359375 214.609375 445.710938 C 214.25 445.808594 213.761719 445.929688 213.519531 445.984375 C 213.273438 446.027344 212.722656 446.191406 212.300781 446.324219 C 210.902344 446.769531 209.824219 447.003906 206.652344 447.550781 C 206.230469 447.636719 205.214844 447.765625 204.40625 447.855469 C 203.597656 447.941406 202.285156 448.078125 201.511719 448.167969 C 200.800781 448.246094 199.589844 448.300781 198.6875 448.300781 C 198.597656 448.300781 198.507812 448.300781 198.425781 448.300781 C 196.300781 448.265625 195.925781 448.105469 193.828125 446.332031 C 193.292969 445.875 192.328125 445.078125 191.675781 444.5625 C 190.140625 443.320312 187.492188 440.757812 186.820312 439.855469 C 185.820312 438.527344 185.15625 437.996094 184.351562 437.996094 C 184.144531 437.996094 183.925781 438.03125 183.691406 438.097656 C 183.359375 438.179688 182.875 438.417969 182.605469 438.601562 C 181.957031 439.074219 180.003906 441.125 179.296875 442.101562 C 178.980469 442.527344 178.511719 443.167969 178.234375 443.53125 C 176.757812 445.496094 175.25 448.117188 174.542969 449.957031 C 173.933594 451.523438 173.8125 452.054688 173.707031 453.636719 C 173.5625 455.984375 173.3125 457.414062 172.945312 457.972656 C 172.78125 458.234375 172.125 459.082031 171.492188 459.863281 C 170.859375 460.644531 170.191406 461.527344 170 461.839844 C 169.8125 462.140625 169.371094 462.851562 169.007812 463.425781 C 166.703125 467.101562 165.3125 470.507812 164.605469 474.148438 C 164.28125 475.863281 164.296875 479.699219 164.640625 481.316406 C 165.152344 483.757812 165.816406 485.203125 166.769531 485.910156 C 167.261719 486.269531 168.273438 486.53125 169.003906 486.53125 C 169.195312 486.53125 169.367188 486.515625 169.503906 486.476562 C 170.210938 486.273438 170.324219 486.179688 173.539062 483.1875 C 174.3125 482.464844 174.878906 481.570312 175.265625 480.457031 C 175.757812 479.019531 176.121094 478.167969 176.445312 477.648438 C 176.621094 477.375 177.789062 476.121094 179.019531 474.867188 C 180.261719 473.613281 181.785156 472.007812 182.40625 471.292969 C 183.027344 470.585938 183.964844 469.660156 184.488281 469.242188 C 185.023438 468.820312 185.542969 468.402344 185.644531 468.308594 C 185.746094 468.21875 186.117188 467.902344 186.472656 467.617188 C 186.816406 467.339844 187.769531 466.4375 188.582031 465.640625 C 189.8125 464.40625 190.289062 464.019531 190.917969 464.019531 C 191.113281 464.019531 191.320312 464.058594 191.570312 464.117188 C 191.914062 464.195312 192.300781 464.234375 192.664062 464.234375 C 193.140625 464.234375 193.574219 464.167969 193.8125 464.035156 C 194.015625 463.929688 194.597656 463.355469 195.132812 462.765625 C 196.601562 461.085938 196.253906 461.167969 203.113281 461.082031 C 204.328125 461.0625 205.421875 461.054688 206.363281 461.054688 C 208.226562 461.054688 209.519531 461.089844 210.066406 461.148438 C 210.777344 461.214844 212.257812 461.324219 213.378906 461.371094 C 214.488281 461.421875 216.1875 461.539062 217.179688 461.625 C 221.183594 462.015625 223.164062 462.140625 226.136719 462.140625 C 226.851562 462.140625 227.621094 462.132812 228.492188 462.121094 C 231.363281 462.078125 233.394531 461.984375 234.085938 461.871094 C 236.054688 461.558594 239.746094 461.347656 242.570312 461.347656 C 243.570312 461.347656 244.457031 461.375 245.128906 461.429688 C 246.480469 461.539062 248.144531 461.800781 249.089844 462.03125 C 249.371094 462.105469 250.09375 462.261719 250.703125 462.378906 C 251.308594 462.5 252.472656 462.742188 253.285156 462.910156 C 255.085938 463.300781 258.042969 463.671875 259.402344 463.671875 C 259.4375 463.671875 259.46875 463.671875 259.5 463.671875 C 260.554688 463.65625 261.800781 463.40625 262.941406 462.964844 C 264.386719 462.402344 266.808594 460.707031 268.421875 459.125 C 269.628906 457.9375 271.90625 455.242188 272.914062 453.824219 C 275.085938 450.753906 276.402344 449.265625 278.804688 447.183594 C 283.96875 442.746094 284.882812 441.792969 286.53125 439.273438 C 287.277344 438.15625 288.917969 435.957031 289.652344 435.109375 C 290.882812 433.699219 292.21875 431.660156 292.476562 430.820312 C 292.5625 430.535156 292.773438 430.082031 292.9375 429.808594 C 293.128906 429.484375 293.242188 429.371094 293.398438 429.371094 C 293.4375 429.371094 293.476562 429.375 293.523438 429.386719 C 293.679688 429.4375 295.101562 430.71875 296.679688 432.238281 C 298.257812 433.75 299.8125 435.21875 300.136719 435.484375 C 301.351562 436.523438 306 441.089844 306.691406 441.945312 C 307.097656 442.425781 308.300781 443.699219 309.359375 444.75 C 310.835938 446.210938 311.617188 446.867188 312.605469 447.484375 C 313.320312 447.9375 314.136719 448.492188 314.410156 448.707031 C 314.945312 449.113281 316.113281 450.523438 317.371094 452.230469 C 317.765625 452.78125 318.785156 453.921875 319.621094 454.773438 C 321.425781 456.601562 321.902344 457.40625 322.433594 459.546875 C 322.527344 459.933594 322.664062 460.484375 322.746094 460.765625 C 322.828125 461.050781 322.96875 461.949219 323.058594 462.757812 C 323.160156 463.566406 323.261719 464.273438 323.273438 464.3125 C 323.300781 464.351562 323.410156 465.738281 323.511719 467.398438 C 323.714844 470.792969 324.15625 474.714844 324.457031 475.832031 C 324.566406 476.242188 324.824219 477.242188 325.015625 478.050781 C 325.535156 480.179688 326.558594 483.332031 327.117188 484.519531 C 327.183594 484.660156 327.410156 485.261719 327.640625 485.851562 C 327.988281 486.773438 329.695312 490.121094 330.011719 490.515625 C 330.074219 490.59375 330.273438 490.914062 330.457031 491.230469 C 330.945312 492.085938 333.253906 495.734375 333.554688 496.15625 C 333.699219 496.359375 333.988281 496.78125 334.199219 497.085938 C 334.871094 498.105469 336.433594 500.425781 337.328125 501.753906 C 338.199219 503.027344 340.015625 506.003906 340.953125 507.6875 C 341.496094 508.632812 342.050781 509.640625 342.222656 509.921875 C 342.382812 510.203125 342.75 510.867188 343.054688 511.390625 C 343.359375 511.914062 344.21875 513.5625 344.988281 515.058594 C 346.578125 518.152344 346.589844 518.1875 346.023438 519.949219 C 345.59375 521.320312 345.558594 522.542969 345.902344 524.003906 C 346.269531 525.507812 347.046875 526.757812 348.8125 528.625 C 349.53125 529.386719 349.9375 529.960938 350.414062 530.917969 C 351.289062 532.65625 351.929688 534 352.207031 534.691406 C 352.582031 535.597656 352.859375 536.121094 353.1875 536.492188 C 353.710938 537.113281 354.8125 537.714844 355.78125 537.921875 C 356.1875 538.007812 356.425781 538.054688 356.628906 538.054688 C 356.839844 538.054688 357.015625 538.003906 357.3125 537.898438 C 358.605469 537.441406 359.644531 536.992188 361.164062 536.195312 C 362.441406 535.535156 362.9375 535.191406 363.839844 534.328125 C 364.449219 533.753906 365.289062 533.007812 365.722656 532.667969 C 366.765625 531.84375 367.257812 531.242188 367.429688 530.582031 C 367.710938 529.445312 367.933594 528.929688 368.253906 528.667969 C 368.558594 528.429688 370.402344 527.734375 370.761719 527.730469 C 370.851562 527.726562 371.328125 527.59375 371.8125 527.417969 C 373.925781 526.679688 379.59375 522.324219 383.285156 518.578125 C 385.277344 516.566406 385.695312 515.953125 386.464844 513.921875 C 386.597656 513.558594 386.871094 512.835938 387.082031 512.304688 C 387.628906 510.855469 387.988281 508.878906 387.917969 507.761719 C 387.789062 505.972656 387.015625 503.859375 386.203125 503.058594 C 385.695312 502.566406 385.304688 502.378906 384.414062 502.160156 C 384.214844 502.113281 384.015625 502.085938 383.800781 502.085938 C 382.789062 502.085938 381.496094 502.648438 378.945312 504.128906 C 378.347656 504.472656 377.554688 504.882812 376.800781 505.230469 C 371.734375 507.59375 371.632812 507.621094 366.640625 507.847656 C 364.402344 507.945312 362.175781 508.117188 361.328125 508.246094 C 360.492188 508.382812 359.714844 508.449219 359.019531 508.449219 C 357.644531 508.449219 356.589844 508.1875 356.042969 507.691406 C 355.546875 507.246094 355.519531 507.183594 354.125 503.121094 C 353.976562 502.660156 353.628906 501.855469 353.375 501.332031 C 352.117188 498.710938 351.851562 498.132812 351.304688 496.816406 C 350.984375 496.023438 350.554688 494.855469 350.351562 494.230469 C 350.164062 493.585938 349.90625 492.792969 349.800781 492.445312 C 349.691406 492.113281 349.609375 491.730469 349.605469 491.613281 C 349.605469 491.496094 349.480469 490.996094 349.347656 490.507812 C 349.089844 489.652344 348.910156 488.882812 348.238281 485.828125 C 348.070312 485.082031 347.78125 483.835938 347.605469 483.066406 C 347.414062 482.285156 347.167969 481.246094 347.042969 480.757812 C 346.785156 479.679688 345.273438 474.976562 344.617188 473.199219 C 344.230469 472.148438 343.429688 470.253906 342.84375 468.976562 C 342.710938 468.679688 342.433594 468.054688 341.953125 466.929688 C 341.554688 465.96875 341.054688 464.378906 340.75 463.058594 C 340.464844 461.851562 340.394531 458.828125 340.605469 457.316406 C 340.6875 456.761719 340.746094 455.398438 340.730469 454.289062 C 340.71875 452.578125 340.660156 452.117188 340.402344 451.257812 C 339.96875 449.796875 338.9375 447.816406 337.886719 446.414062 C 336.847656 445.027344 335.746094 443.507812 335.078125 442.566406 C 334.511719 441.761719 333.320312 439.605469 331.96875 436.945312 C 330.871094 434.785156 330.738281 434.519531 328.71875 430.300781 C 328.003906 428.816406 327.367188 427.511719 327.300781 427.382812 C 327.234375 427.257812 326.851562 426.449219 326.464844 425.59375 C 326.078125 424.738281 325.453125 423.433594 325.097656 422.691406 C 324.726562 421.949219 324.273438 421.03125 324.089844 420.644531 C 322.230469 416.773438 321.34375 415.097656 320.515625 413.769531 C 320.355469 413.515625 320.144531 413.160156 320.050781 412.980469 C 319.972656 412.800781 319.839844 412.570312 319.761719 412.46875 C 319.695312 412.367188 319.195312 411.550781 318.65625 410.65625 C 317.757812 409.1875 317.035156 408.09375 316.046875 406.691406 C 315.351562 405.722656 314.003906 404.09375 312.433594 402.351562 C 310.730469 400.457031 309.839844 399.210938 309.265625 397.90625 C 308.960938 397.199219 308.917969 396.945312 308.910156 395.632812 C 308.890625 394.253906 308.929688 394.046875 309.394531 392.585938 C 309.679688 391.730469 310.136719 390.503906 310.425781 389.867188 C 311.375 387.820312 312.582031 384.082031 313.125 381.601562 C 313.488281 379.9375 313.707031 377.292969 313.796875 373.675781 C 313.835938 371.9375 313.957031 369.617188 314.046875 368.523438 C 314.144531 367.425781 314.242188 366.175781 314.277344 365.75 C 314.355469 364.863281 314.785156 362.667969 315.226562 360.972656 C 315.640625 359.347656 316.097656 357.113281 316.171875 356.199219 C 316.308594 354.792969 316.703125 351.953125 316.886719 351.101562 C 316.980469 350.636719 317.195312 349.449219 317.375 348.46875 C 317.539062 347.460938 317.820312 346.363281 317.996094 345.976562 C 318.332031 345.25 318.917969 344.636719 319.277344 344.628906 C 319.855469 344.636719 320.433594 345.488281 321.027344 347.179688 C 321.671875 349.0625 322.796875 351.378906 323.917969 353.136719 C 324.140625 353.484375 324.417969 353.929688 324.539062 354.144531 C 325.355469 355.5625 327.175781 357.621094 328.121094 358.203125 C 329.1875 358.847656 331.304688 359.34375 332.84375 359.34375 C 333.070312 359.34375 333.285156 359.332031 333.480469 359.308594 C 335.050781 359.132812 335.597656 358.777344 337.808594 356.59375 C 338.644531 355.746094 339.6875 354.777344 340.105469 354.4375 C 341.875 352.984375 342.875 351.734375 343.886719 349.695312 C 344.914062 347.648438 346 346.113281 348.164062 343.648438 C 348.847656 342.855469 349.644531 341.863281 349.933594 341.4375 C 350.792969 340.121094 351.90625 338.78125 352.527344 338.28125 C 354.605469 336.65625 355.957031 335.054688 357.339844 332.613281 C 357.679688 332.015625 358.179688 331.148438 358.457031 330.679688 C 359.449219 329.015625 359.683594 328.28125 359.667969 326.992188 C 359.636719 325.886719 359.625 325.796875 359.148438 325.042969 C 358.476562 323.984375 357.265625 322.933594 356.058594 322.382812 C 354.570312 321.710938 351.957031 320.859375 351.144531 320.78125 C 351.011719 320.769531 350.898438 320.761719 350.796875 320.761719 C 350.390625 320.761719 350.121094 320.863281 349.386719 321.191406 C 348.824219 321.457031 348.03125 321.726562 347.621094 321.808594 C 346.835938 321.964844 346.644531 322.132812 346.054688 323.132812 C 345.765625 323.625 345.71875 323.859375 345.742188 324.617188 C 345.753906 325.480469 345.847656 325.761719 346.554688 327.347656 C 346.6875 327.65625 346.75 328.464844 346.792969 330.511719 L 346.84375 333.265625 L 346.394531 334.238281 C 345.757812 335.613281 344.792969 336.589844 342.703125 337.984375 C 342.484375 338.132812 342.203125 338.316406 342.0625 338.40625 C 341.03125 339.105469 340.167969 339.835938 339 340.988281 C 337.488281 342.488281 336.582031 343.03125 335.234375 343.242188 C 334.988281 343.28125 334.785156 343.304688 334.609375 343.304688 C 333.949219 343.304688 333.691406 342.96875 333.113281 341.804688 C 332.78125 341.140625 332.503906 340.554688 332.503906 340.5 C 332.503906 340.449219 332.382812 340.167969 332.25 339.886719 C 332.105469 339.59375 331.773438 338.863281 331.519531 338.25 C 331.265625 337.636719 330.640625 336.226562 330.132812 335.117188 C 328.074219 330.601562 327.6875 329.652344 326.585938 326.414062 C 326.25 325.414062 325.964844 324.515625 325.964844 324.398438 C 325.960938 324.296875 325.882812 324.015625 325.773438 323.785156 C 325.667969 323.554688 325.304688 322.53125 324.957031 321.503906 C 324.21875 319.289062 323.117188 317.117188 321.816406 315.28125 C 319.582031 312.132812 318.554688 311.363281 314.75 309.960938 C 313.816406 309.628906 312.769531 309.207031 312.417969 309.03125 C 312.054688 308.855469 311.511719 308.578125 311.199219 308.429688 C 310.320312 307.992188 309.445312 307.128906 309.527344 306.765625 C 309.550781 306.601562 309.695312 305.914062 309.828125 305.242188 C 309.972656 304.574219 310.136719 303.488281 310.207031 302.855469 C 310.429688 300.613281 310.960938 299.007812 311.710938 298.304688 C 312.550781 297.507812 314.332031 296.992188 316.851562 296.839844 C 318.871094 296.71875 319.707031 296.503906 320.175781 295.992188 C 320.808594 295.277344 320.921875 294.992188 321.015625 293.546875 C 321.066406 292.75 321.222656 291.792969 321.382812 291.328125 C 321.605469 290.628906 321.628906 290.4375 321.492188 289.9375 C 321.355469 289.410156 321.367188 289.320312 321.65625 288.800781 C 321.957031 288.28125 321.96875 288.140625 321.921875 286.816406 C 321.859375 285.140625 321.921875 285.011719 323.074219 284.570312 C 323.472656 284.425781 323.957031 284.160156 324.160156 284.003906 C 324.480469 283.742188 324.527344 283.609375 324.519531 283.058594 C 324.511719 282.464844 324.417969 282.273438 323.445312 280.832031 C 322.050781 278.742188 321.785156 278.074219 321.761719 276.492188 C 321.753906 275.824219 321.816406 274.894531 321.898438 274.429688 C 321.984375 273.964844 322.035156 273.039062 322.023438 272.371094 C 322.003906 271.03125 321.964844 270.890625 320.878906 268.78125 C 320.535156 268.117188 320.054688 267.042969 319.800781 266.414062 C 319.132812 264.75 318.910156 264.289062 318.449219 263.730469 C 318.226562 263.449219 317.964844 262.992188 317.882812 262.710938 C 317.449219 261.390625 316.9375 260.738281 315.71875 259.945312 C 313.625 258.597656 311.660156 257.945312 307.945312 257.367188 C 306.21875 257.089844 305.003906 256.984375 303.152344 256.984375 Z M 303.152344 256.984375 " fill-opacity="1" fill-rule="nonzero"/></g></svg>